<ttFont>
          <CharString index="0">
            -106 callgsubr
            endchar
          </CharString>
          <CharString index="1">
            3 -48 rlineto
            129 hlineto
            54 270 rlineto
            6 28 2 24 22 vvcurveto
            112 -66 56 -114 -68 -72 -20 -30 -62 vhcurveto
            48 -110 rlineto
            24 48 30 12 40 hhcurveto
            34 24 -16 -44 -4 0 -4 -2 -6 hvcurveto
            return
          </CharString>
          <CharString index="2">
            226 -12 rmoveto
            138 146 122 194 124 -80 84 -120 -138 -146 -122 -194 -124 80 -84 120 hvcurveto
            66 396 rmoveto
            38 18 -32 -50 -108 -46 -78 -58 -38 -18 32 50 108 46 78 58 hvcurveto
            return
          </CharString>
          <CharString index="3">
            -38 -32 -24 -18 -26 hhcurveto
            -26 -16 14 28 12 4 14 4 18 hvcurveto
            58 290 -86 callgsubr
            -62 -310 rlineto
            -5 -24 -3 -26 -22 vvcurveto
            return
          </CharString>
          <CharString index="4">
            212 -54 rmoveto
            -28 -18 22 52 112 54 78 58 18 24 -12 -26 12 hvcurveto
            -32 -160 rlineto
            -54 -26 -36 -12 -26 hhcurveto
            return
          </CharString>
          <CharString index="5">
            -112 -22 -32 -44 -58 hhcurveto
            -66 -20 34 66 24 4 24 4 26 hvcurveto
            70 350 -86 callgsubr
            return
          </CharString>
          <CharString index="6">
            -22 -50 rlineto
            -2 hlineto
            38 -18 -42 88 callsubr
            -122 -140 -178 -118 62 -56 84 52 46 22 42 127 callgsubr
            -24 -78 rlineto
            -58 -20 -40 -30 -58 hhcurveto
            -44 -42 22 28 -38 hvcurveto
            -68 -106 rlineto
            -48 60 72 -22 56 hhcurveto
            146 99 74 154 31 hvcurveto
            return
          </CharString>
          <CharString index="7">
            2 113 rmoveto
            -91 68 87 -34 83 hhcurveto
            156 98 97 119 76 -25 41 -63 38 hvcurveto
            -60 37 rlineto
            -52 33 -28 12 27 vvcurveto
            31 23 25 46 42 33 -24 -33 33 vhcurveto
            100 94 rlineto
            63 -53 -73 38 -76 hhcurveto
            -132 -107 -93 -117 -81 36 -47 60 -38 hvcurveto
            56 -35 rlineto
            45 -28 29 -13 -29 vvcurveto
            -36 -30 -21 -46 -50 -52 32 47 -34 vhcurveto
            return
          </CharString>
          <CharString index="8">
            28 callsubr
            hintmask 01111110
            -87 callgsubr
            hintmask 10111110
            -98 callsubr
            return
          </CharString>
          <CharString index="9">
            -106 callsubr
            hintmask 01111110
            -77 callgsubr
            hintmask 10111110
            -79 callgsubr
            hintmask 01111110
            -15 callsubr
            return
          </CharString>
          <CharString index="10">
            hstemhm
            -30 136 -64 130 -112 146 76 158 -120 136 hintmask 1110110010100000
            15 callsubr
            hintmask 1111010100100000
            -15 callgsubr
            hintmask 1111011001000000
            -59 callsubr
            hintmask 1111010100100000
            -83 callgsubr
            hintmask 1110110010100000
            8 -22 -22 4 -28 hhcurveto
            -118 -100 -82 -114 hvcurveto
            hintmask 1111011001000000
            -69 callgsubr
            hintmask 1110110010100000
            -53 callgsubr
            return
          </CharString>
          <CharString index="11">
            18 callgsubr
            -88 hlineto
            -32 -10 -20 -26 -34 hhcurveto
            -34 -10 26 32 4 hvcurveto
            -84 hlineto
            -76 -16 36 -66 88 hhcurveto
            return
          </CharString>
          <CharString index="12">
            rmoveto
            22 -8 12 -10 -14 vvcurveto
            -26 -24 -10 -62 -2 callgsubr
            106 4 88 18 86 vvcurveto
            46 -38 24 -68 10 vhcurveto
            return
          </CharString>
          <CharString index="13">
            70 hmoveto
            198 hlineto
            108 278 19 50 21 53 17 48 rlinecurve
            4 hlineto
            -5 -49 -6 -63 -39 vvcurveto
            -8 -278 rlineto
            202 hlineto
            246 99 callsubr
            -98 -294 -20 -67 -26 -71 -22 -70 rlinecurve
            -4 hlineto
            4 70 4 72 2 66 rrcurveto
            294 -133 vlineto
            -123 -294 -25 -67 -31 -72 -26 -69 rlinecurve
            -4 hlineto
            10 69 7 71 7 68 26 294 rcurveline
            -164 hlineto
            return
          </CharString>
          <CharString index="14">
            -6 hmoveto
            292 -89 callsubr
            return
          </CharString>
          <CharString index="15">
            28 172 rmoveto
            35 callsubr
            return
          </CharString>
          <CharString index="16">
            rmoveto
            110 hlineto
            62 76 rlineto
            4 hlineto
            32 -76 rlineto
            102 hlineto
            -62 -31 callgsubr
            return
          </CharString>
          <CharString index="17">
            -54 callsubr
            hintmask 11010100
            -57 callgsubr
            hintmask 11101000
            -50 callgsubr
            hintmask 11010100
            -55 callgsubr
            hintmask 11101000
            -44 -22 -44 -40 -52 vvcurveto
            endchar
          </CharString>
          <CharString index="18">
            -20 callgsubr
            -68 hlineto
            78 382 rlineto
            64 -20 callgsubr
            -290 hlineto
            -28 -134 rlineto
            66 hlineto
            -78 -382 rlineto
            -64 hlineto
            return
          </CharString>
          <CharString index="19">
            rmoveto
            34 76 28 62 22 60 26 64 rlinecurve
            4 hlineto
            -66 2 -58 2 -62 vhcurveto
            2 -76 rlineto
            8 -268 rmoveto
            168 hlineto
            -43 callsubr
            endchar
          </CharString>
          <CharString index="20">
            48 34 44 40 40 -30 24 -34 -48 -34 -44 -40 -40 28 -24 36 hvcurveto
            return
          </CharString>
          <CharString index="21">
            rmoveto
            -110 hlineto
            -62 -76 rlineto
            -4 hlineto
            -32 76 rlineto
            -102 hlineto
            62 -152 rlineto
            126 hlineto
            endchar
          </CharString>
          <CharString index="22">
            -104 callsubr
            hintmask 01011100
            -76 callsubr
            return
          </CharString>
          <CharString index="23">
            rmoveto
            44 32 36 42 30 -22 22 -34 -42 -32 -34 -42 -30 22 -24 32 hvcurveto
            198 hmoveto
            42 32 36 42 30 -22 22 -32 -42 -32 -34 -42 -30 22 -24 32 hvcurveto
            endchar
          </CharString>
          <CharString index="24">
            rmoveto
            116 80 108 146 100 -66 62 -78 -116 -80 -108 -146 -100 66 -62 78 hvcurveto
            42 322 rmoveto
            28 14 -26 -44 -98 -34 -60 -40 -28 -14 26 44 98 34 60 40 hvcurveto
            return
          </CharString>
          <CharString index="25">
            rmoveto
            274 hlineto
            20 100 rlineto
            -274 hlineto
            return
          </CharString>
          <CharString index="26">
            rmoveto
            -126 hlineto
            -58 -60 rlineto
            -2 hlineto
            -38 60 rlineto
            -116 hlineto
            68 -122 rlineto
            156 hlineto
            endchar
          </CharString>
          <CharString index="27">
            rmoveto
            42 30 38 36 34 -24 22 -32 -42 -30 -38 -36 -34 24 -22 32 hvcurveto
            194 hmoveto
            42 30 38 36 34 -24 22 -32 -42 -30 -38 -36 -34 24 -22 32 hvcurveto
            return
          </CharString>
          <CharString index="28">
            -28 112 rlineto
            -6 -12 -12 -4 -12 hhcurveto
            -32 -16 14 30 10 0 10 2 12 hvcurveto
            38 188 rlineto
            112 30 callgsubr
            -108 hlineto
            24 128 rlineto
            -134 hlineto
            -44 -128 -72 -6 71 callgsubr
            return
          </CharString>
          <CharString index="29">
            48 callsubr
            152 92 72 48 34 36 vhcurveto
            -66 102 rlineto
            -26 -30 -36 -20 -34 hhcurveto
            -88 -36 54 94 140 84 110 94 30 24 -16 -36 24 hvcurveto
            108 84 rlineto
            68 -38 -64 38 -76 hhcurveto
            -192 40 callsubr
            return
          </CharString>
          <CharString index="30">
            125 callsubr
            70 hhcurveto
            87 75 64 84 70 -46 44 -62 -5 -13 0 -4 -12 hvcurveto
            14 46 rlineto
            142 hlineto
            18 98 rlineto
            -232 hlineto
            -54 -196 40 -38 rlineto
            12 20 19 4 13 hhcurveto
            26 18 -14 -28 -28 -24 -22 -32 -26 -22 14 28 -18 hvcurveto
            return
          </CharString>
          <CharString index="31">
            -86 36 -44 82 60 58 36 40 42 vhcurveto
            4 hlineto
            return
          </CharString>
          <CharString index="32">
            rmoveto
            -30 callgsubr
            hintmask 11101000
            54 22 22 34 50 vvcurveto
            58 -52 40 -73 -49 -38 -8 -28 -48 vhcurveto
            48 -76 rlineto
            18 26 12 4 22 hhcurveto
            22 14 -12 -17 -25 -13 -25 -69 hvcurveto
            hintmask 11110000
            -9 callsubr
          </CharString>
          <CharString index="33">
            284 hlineto
            20 98 rlineto
            -100 hlineto
            72 61 52 59 68 vvcurveto
            72 -52 44 -84 -56 -36 -22 -42 -48 vhcurveto
            64 -68 rlineto
            18 20 16 14 18 hhcurveto
            28 14 -16 -22 -52 -70 -68 -130 -82 hvcurveto
            return
          </CharString>
          <CharString index="34">
            -71 callgsubr
            -12 -20 return
          </CharString>
          <CharString index="35">
            2 hlineto
            38 -60 rlineto
            116 hlineto
            -68 122 67 callgsubr
            return
          </CharString>
          <CharString index="36">
            -22 -50 rlineto
            -2 hlineto
            38 -18 -44 24 -42 hhcurveto
            return
          </CharString>
          <CharString index="37">
            hlineto
            26 -45 callsubr
            return
          </CharString>
          <CharString index="38">
            36 -10 8 -14 -14 vvcurveto
            -28 -40 -14 -48 -2 callgsubr
            106 4 96 34 82 vvcurveto
            32 -18 18 -26 10 vhcurveto
            return
          </CharString>
          <CharString index="39">
            rmoveto
            113 callsubr
            4 -64 rlineto
            88 8 72 34 78 vvcurveto
            46 -40 32 -116 2 vhcurveto
            endchar
          </CharString>
          <CharString index="40">
            -138 -128 -150 -190 hvcurveto
            return
          </CharString>
          <CharString index="41">
            rmoveto
            100 28 88 82 130 vvcurveto
            68 -32 40 -50 -58 -36 -44 -48 -44 34 -26 46 vhcurveto
            2 2 0 2 hhcurveto
            -2 -30 -42 -61 -78 -27 rrcurveto
            return
          </CharString>
          <CharString index="42">
            266 616 17 callgsubr
            -31 -24 -32 -50 -7 vhcurveto
            18 -35 -42 10 -47 hhcurveto
            -172 -164 -156 -242 -176 102 -100 150 hvcurveto
            return
          </CharString>
          <CharString index="43">
            -62 -320 rlineto
            -104 callsubr
            return
          </CharString>
          <CharString index="44">
            rmoveto
            69 callsubr
            4 -62 rlineto
            88 8 74 34 78 vvcurveto
            44 -40 32 -114 4 vhcurveto
            endchar
          </CharString>
          <CharString index="45">
            -160 hlineto
            return
          </CharString>
          <CharString index="46">
            rlineto
            238 -70 callsubr
            -396 hlineto
            return
          </CharString>
          <CharString index="47">
            hhcurveto
            42 14 -26 -34 -12 -2 -12 -2 -8 hvcurveto
            return
          </CharString>
          <CharString index="48">
            -58 -24 -41 -36 -54 vvcurveto
            -104 128 -14 76 126 140 59 123 63 -40 36 -152 20 vhcurveto
            return
          </CharString>
          <CharString index="49">
            rmoveto
            130 hlineto
            142 122 128 callgsubr
            endchar
          </CharString>
          <CharString index="50">
            rmoveto
            68 50 50 66 58 -44 34 -62 -68 -50 -50 -66 -58 44 -34 62 hvcurveto
            10 148 rmoveto
            22 10 -18 -18 -28 -18 -24 -22 -22 -10 16 20 28 18 24 22 hvcurveto
            endchar
          </CharString>
          <CharString index="51">
            91 callsubr
            48 -32 36 -48 -66 -44 -58 -54 91 callgsubr
            hvcurveto
            return
          </CharString>
          <CharString index="52">
            vvcurveto
            22 -4 22 -10 22 vhcurveto
            endchar
          </CharString>
          <CharString index="53">
            rmoveto
            24 14 20 24 14 vhcurveto
            26 -16 22 -12 -24 vvcurveto
            -26 -18 -18 -30 -22 -16 20 18 vhcurveto
            return
          </CharString>
          <CharString index="54">
            164 vstem
            26 hmoveto
            214 hlineto
            204 156 130 264 176 -110 80 -182 hvcurveto
            -152 hlineto
            56 -522 rmoveto
            78 394 rlineto
            14 hlineto
            76 56 -36 -102 -188 -92 -68 -108 hvcurveto
            return
          </CharString>
          <CharString index="55">
            124 -115 -21 33 36 callgsubr
            return
          </CharString>
          <CharString index="56">
            8 -44 callgsubr
            return
          </CharString>
          <CharString index="57">
            vstem
            -10 hmoveto
            390 30 callgsubr
            -190 hlineto
            240 284 18 92 rlineto
            -364 hlineto
            -24 -124 116 callsubr
            -240 -286 rlineto
            return
          </CharString>
          <CharString index="58">
            -6 callgsubr
            -6 callsubr
            hintmask 11011000
            414 500 rmoveto
            hintmask 11101000
            -101 callsubr
            hintmask 11011000
            -27 callsubr
            hintmask 11101000
            -28 callsubr
            hintmask 11011000
            -46 -26 -34 -10 -28 hhcurveto
            endchar
          </CharString>
          <CharString index="59">
            rmoveto
            44 -4 12 -8 -14 vvcurveto
            -20 -10 -6 -22 -6 vhcurveto
            -52 vlineto
            78 10 62 22 76 vvcurveto
            38 -34 26 -102 4 vhcurveto
            -294 -230 rmoveto
            102 hlineto
            return
          </CharString>
          <CharString index="60">
            160 hlineto
            return
          </CharString>
          <CharString index="61">
            118 hlineto
            76 390 rlineto
            -90 hlineto
            -38 -24 -26 -12 -56 -8 -14 -72 rcurveline
            86 hlineto
            return
          </CharString>
          <CharString index="62">
            134 rlineto
            return
          </CharString>
          <CharString index="63">
            rmoveto
            470 684 rlineto
            -90 hlineto
            -470 -684 rlineto
            return
          </CharString>
          <CharString index="64">
            -62 650 rlineto
            -192 hlineto
            -73 callgsubr
            179 hlineto
            return
          </CharString>
          <CharString index="65">
            -12 128 268 128 return
          </CharString>
          <CharString index="66">
            -40 -16 42 -61 hhcurveto
            -49 -52 -44 -94 -26 hvcurveto
            return
          </CharString>
          <CharString index="67">
            rmoveto
            -56 callsubr
            return
          </CharString>
          <CharString index="68">
            rmoveto
            -42 callgsubr
            return
          </CharString>
          <CharString index="69">
            -51 callsubr
            -4 callgsubr
            return
          </CharString>
          <CharString index="70">
            138 398 138 return
          </CharString>
          <CharString index="71">
            hintmask 11000110
            -51 callsubr
            hintmask 11100010
            -16 callsubr
            hintmask 11001010
            52 138 rlineto
            hintmask 11000110
            -7 callsubr
            hintmask 11010010
            4 98 rlineto
            -130 hlineto
            return
          </CharString>
          <CharString index="72">
            vstem
            -51 callsubr
            24 118 68 68 68 -186 rlineto
            -47 callsubr
            -118 278 206 222 rlineto
            -176 hlineto
            -164 -180 rlineto
            -4 hlineto
            return
          </CharString>
          <CharString index="73">
            -14 -69 rlineto
            65 13 -16 -28 -24 -20 -16 -35 -27 -22 14 28 -18 hvcurveto
            return
          </CharString>
          <CharString index="74">
            vstem
            142 -44 callgsubr
            102 516 rlineto
            164 -70 callsubr
            -488 hlineto
            -26 -134 116 callsubr
            return
          </CharString>
          <CharString index="75">
            30 -62 rlineto
            92 hlineto
            -50 130 -18 callsubr
            endchar
          </CharString>
          <CharString index="76">
            -40 -16 44 -61 hhcurveto
            -49 -54 -46 -94 -26 hvcurveto
            return
          </CharString>
          <CharString index="77">
            52 -30 32 -10 -26 vvcurveto
            -20 -26 -14 -30 -30 -34 16 42 -36 vhcurveto
            return
          </CharString>
          <CharString index="78">
            rmoveto
            -110 -134 -46 -90 -148 vvcurveto
            -74 20 -68 26 -60 vhcurveto
            88 34 rlineto
            -16 50 -8 66 54 vvcurveto
            122 42 100 82 114 vhcurveto
            endchar
          </CharString>
          <CharString index="79">
            100 48 68 58 18 22 -12 -26 12 vhcurveto
            -26 -138 rlineto
            return
          </CharString>
          <CharString index="80">
            96 480 rlineto
            -306 -350 rmoveto
            -26 -18 20 44 hvcurveto
            return
          </CharString>
          <CharString index="81">
            rmoveto
            -146 hlineto
            -98 -112 rlineto
            108 hlineto
            52 56 rlineto
            4 hlineto
            34 -56 rlineto
            98 hlineto
            return
          </CharString>
          <CharString index="82">
            92 58 66 76 18 hvcurveto
            return
          </CharString>
          <CharString index="83">
            rmoveto
            -38 -18 32 50 108 46 78 58 38 18 -32 -50 -108 -46 -78 -58 hvcurveto
            return
          </CharString>
          <CharString index="84">
            rmoveto
            -60 -36 54 94 150 90 100 74 60 36 -54 -94 -150 -90 -100 -74 hvcurveto
            return
          </CharString>
          <CharString index="85">
            -27 -51 callgsubr
            return
          </CharString>
          <CharString index="86">
            -12 -37 callsubr
            return
          </CharString>
          <CharString index="87">
            336 rmoveto
            -50 36 -34 48 34 34 18 22 20 vhcurveto
            4 hlineto
            4 -32 rlineto
            88 hlineto
            35 177 rlineto
            4 19 2 16 14 vvcurveto
            78 -45 35 -78 -46 -46 -14 -19 -42 vhcurveto
            34 -74 rlineto
            14 32 17 8 24 hhcurveto
            24 15 -11 -29 hvcurveto
            -2 0 -1 -3 vvcurveto
            -109 -3 -89 -33 -96 vvcurveto
            186 66 rmoveto
            -10 -47 rlineto
            -11 -12 -12 -10 -16 hhcurveto
            -18 -10 10 14 23 20 20 58 1 hvcurveto
            endchar
          </CharString>
          <CharString index="88">
            hintmask 10011110
            392 456 rmoveto
            -2 hlineto
            34 -18 -36 22 -42 hhcurveto
            -67 callsubr
            hintmask 10101110
            35 callsubr
            hintmask 10011110
            -62 130 vlineto
            140 696 -86 callgsubr
            -28 -146 rlineto
            hintmask 11001110
            -162 -432 -28 callgsubr
            return
          </CharString>
          <CharString index="89">
            rlineto
            -126 hlineto
            return
          </CharString>
          <CharString index="90">
            -59 -90 128 186 118 104 134 hstem
            288 162 vstem
            -28 26 rmoveto
            -86 62 78 -30 76 hhcurveto
            132 130 98 158 116 -74 60 -96 -18 -16 -2 -8 -18 hvcurveto
            32 114 122 callsubr
            -82 -336 58 -48 rlineto
            23 44 14 5 30 hhcurveto
            48 28 -28 -56 -64 -46 -38 -52 -44 -40 24 46 -34 hvcurveto
            endchar
          </CharString>
          <CharString index="91">
            54 280 rlineto
            66 38 36 26 42 hhcurveto
            16 22 0 -8 14 hvcurveto
            return
          </CharString>
          <CharString index="92">
            38 34 32 90 2 vhcurveto
            return
          </CharString>
          <CharString index="93">
            104 rmoveto
            -86 62 88 -30 76 hhcurveto
            142 110 68 130 54 -28 50 -68 28 hvcurveto
            4 vlineto
            hintmask 11101000
            100 35 32 53 80 vvcurveto
            94 -84 62 -118 -68 -62 -14 -46 -68 vhcurveto
            76 -102 rlineto
            24 40 24 12 28 hhcurveto
            42 26 -22 -34 -50 -32 -36 -124 hvcurveto
            -22 -112 rlineto
            hintmask 11110000
            118 28 -28 -50 -46 -36 -26 -60 -38 -50 24 46 -34 hvcurveto
            endchar
          </CharString>
          <CharString index="94">
            -228 164 return
          </CharString>
          <CharString index="95">
            vstem
            270 -11 callgsubr
            -98 -490 rlineto
            -52 -12 -12 -20 -32 hhcurveto
            -14 -14 4 8 -14 hvcurveto
            -48 -114 rlineto
            -18 36 32 -6 36 hhcurveto
            124 54 86 104 22 hvcurveto
            return
          </CharString>
          <CharString index="96">
            -42 callsubr
            62 return
          </CharString>
          <CharString index="97">
            -51 callsubr
            140 696 -86 callgsubr
            return
          </CharString>
          <CharString index="98">
            -34 callsubr
            endchar
          </CharString>
          <CharString index="99">
            -59 -12 122 360 122 hstem
            30 150 170 150 vstem
            222 -12 rmoveto
            182 96 196 190 132 -72 86 -120 -182 -96 -196 -190 -132 72 -86 120 hvcurveto
            72 482 rmoveto
            40 16 -38 -68 -118 -48 -136 -66 -40 -16 38 68 118 48 136 66 hvcurveto
            endchar
          </CharString>
          <CharString index="100">
            6 -10 -16 4 -28 hhcurveto
            -56 -58 -46 -64 -38 hvcurveto
            -4 hlineto
            return
          </CharString>
          <CharString index="101">
            hstemhm
            28 166 return
          </CharString>
          <CharString index="102">
            86 -36 44 -82 -64 -56 -36 -40 -46 vhcurveto
            -4 hlineto
            return
          </CharString>
          <CharString index="103">
            -68 32 -40 50 58 36 44 48 44 -34 26 -46 vhcurveto
            -2 -2 0 -2 hhcurveto
            2 30 42 61 78 27 rrcurveto
            return
          </CharString>
          <CharString index="104">
            21 34 callgsubr
            return
          </CharString>
          <CharString index="105">
            164 hintmask 10011100
            -51 callsubr
            hintmask 11001100
            110 callgsubr
            hintmask 11001010
            10 callsubr
            return
          </CharString>
          <CharString index="106">
            rmoveto
            220 158 170 216 160 -114 118 -156 -220 -158 -170 -216 -160 114 -118 156 hvcurveto
            102 596 rmoveto
            136 68 -102 -114 -174 -132 -138 -168 -136 -68 102 114 174 132 138 168 hvcurveto
            endchar
          </CharString>
          <CharString index="107">
            91 -21 callsubr
            return
          </CharString>
          <CharString index="108">
            0 16 callgsubr
            return
          </CharString>
          <CharString index="109">
            hmoveto
            29 146 rlineto
            69 hlineto
            24 122 rlineto
            -69 hlineto
            73 366 133 callsubr
            -286 -376 -22 -112 rlineto
            259 hlineto
            -29 -146 rlineto
            -54 268 rmoveto
            82 112 26 37 22 43 24 40 rlinecurve
            4 hlineto
            -10 -48 -14 -50 -10 -48 -17 -86 rcurveline
            endchar
          </CharString>
          <CharString index="110">
            316 rmoveto
            -50 22 -36 34 -30 vhcurveto
            -4 vlineto
            return
          </CharString>
          <CharString index="111">
            172 164 156 242 82 -22 65 -39 47 hvcurveto
            return
          </CharString>
          <CharString index="112">
            -269 324 162 -162 348 hstemhm
            92 176 hintmask 01100000
            112 callsubr
            hintmask 10100000
            -4 callsubr
            endchar
          </CharString>
          <CharString index="113">
            rmoveto
            138 156 126 298 162 -86 72 -110 -138 -158 -128 -298 -160 88 -72 110 hvcurveto
            88 536 rmoveto
            36 24 -20 -74 -190 -74 -130 -64 -36 -24 18 74 190 74 132 64 hvcurveto
            endchar
          </CharString>
          <CharString index="114">
            41 -12 136 124 130 146 138 return
          </CharString>
          <CharString index="115">
            rmoveto
            -22 8 -12 10 14 vvcurveto
            26 24 10 62 4 vhcurveto
            -4 62 rlineto
            -106 -4 -88 -18 -86 vvcurveto
            -46 38 -24 68 -10 vhcurveto
            endchar
          </CharString>
          <CharString index="116">
            hintmask 11110110
            502 970 rmoveto
            92 callgsubr
            hintmask 11111010
            -42 -48 -36 -82 -26 hvcurveto
            70 hlineto
            hintmask 11110110
            24 10 16 12 16 hhcurveto
            hintmask 11111010
            26 24 -36 44 hhcurveto
            hintmask 11110110
            42 48 34 84 26 hvcurveto
            return
          </CharString>
          <CharString index="117">
            -88 callgsubr
            5 24 3 26 22 vvcurveto
            hintmask 10011010
            -5 callsubr
            hintmask 10101100
            108 callsubr
            return
          </CharString>
          <CharString index="118">
            rmoveto
            44 -4 12 -8 -14 vvcurveto
            -18 -12 -8 -20 -4 vhcurveto
            -54 vlineto
            78 10 58 24 76 vvcurveto
            36 -32 28 -100 2 vhcurveto
            return
          </CharString>
          <CharString index="119">
            -197 1 callsubr
            return
          </CharString>
          <CharString index="120">
            rmoveto
            106 hlineto
            112 122 rlineto
            -134 hlineto
            94 -122 rmoveto
            106 hlineto
            112 122 rlineto
            -134 hlineto
            endchar
          </CharString>
          <CharString index="121">
            rmoveto
            70 hlineto
            24 10 16 12 16 hhcurveto
            hintmask 11010000
            26 24 -36 44 hhcurveto
            hintmask 10110000
            107 callgsubr
            hintmask 11010000
            84 callsubr
            hintmask 10110000
            39 callsubr
          </CharString>
          <CharString index="122">
            60 3 callsubr
            return
          </CharString>
          <CharString index="123">
            90 46 46 76 24 hvcurveto
            return
          </CharString>
          <CharString index="124">
            rmoveto
            30 13 11 10 14 hhcurveto
            return
          </CharString>
          <CharString index="125">
            vstem
            426 211 rmoveto
            88 439 -86 callgsubr
            -82 -411 rlineto
            -79 -16 -28 -34 -46 hhcurveto
            -42 -34 30 28 -20 hvcurveto
            -96 -98 rlineto
            -64 42 76 -34 74 hhcurveto
            148 72 104 119 24 hvcurveto
            return
          </CharString>
          <CharString index="126">
            838 rmoveto
            75 callgsubr
            82 hlineto
            74 callsubr
            return
          </CharString>
          <CharString index="127">
            -70 callsubr
            -236 hlineto
            return
          </CharString>
          <CharString index="128">
            -21 500 81 callgsubr
            return
          </CharString>
          <CharString index="129">
            -47 callgsubr
            14 332 rmoveto
            34 76 28 62 22 60 26 64 rlinecurve
            4 hlineto
            -66 2 -58 2 -62 vhcurveto
            2 -76 rlineto
            return
          </CharString>
          <CharString index="130">
            -158 -166 -232 return
          </CharString>
          <CharString index="131">
            hstemhm
            82.5 146 165.5 112 return
          </CharString>
          <CharString index="132">
            81 callsubr
            142 122 rlineto
            -168 hlineto
            return
          </CharString>
          <CharString index="133">
            -21 224 126 174 126 return
          </CharString>
          <CharString index="134">
            42 166 49 callsubr
            return
          </CharString>
          <CharString index="135">
            53 callsubr
            144 158 return
          </CharString>
          <CharString index="136">
            rmoveto
            -62 -40 76 -152 -130 -150 48 -52 152 136 20 112 rlineto
            return
          </CharString>
          <CharString index="137">
            30 13 13 12 14 hhcurveto
            return
          </CharString>
          <CharString index="138">
            -64 -47 callgsubr
            return
          </CharString>
          <CharString index="139">
            26 162 160 162 return
          </CharString>
          <CharString index="140">
            -269 -3 callsubr
            return
          </CharString>
          <CharString index="141">
            -51 callgsubr
            94 152 60 callsubr
            return
          </CharString>
          <CharString index="142">
            -118 52 -66 88 48 58 28 46 44 vhcurveto
            2 hlineto
            return
          </CharString>
          <CharString index="143">
            146 28 88 106 138 vvcurveto
            hintmask 01100000
            68 -34 40 -60 -64 -40 -48 -54 -49 36 -29 49 -2 vhcurveto
            -14 -47 -42 -43 -81 -22 rrcurveto
            return
          </CharString>
          <CharString index="144">
            556 rmoveto
            88 8 72 34 78 vvcurveto
            46 -40 32 -116 2 vhcurveto
            -32 -78 rlineto
            113 callsubr
            return
          </CharString>
          <CharString index="145">
            vstem
            88 324 rmoveto
            104 hlineto
            94 206 54 154 rlineto
            -158 hlineto
            return
          </CharString>
          <CharString index="146">
            -26 -26 38 -44 hhcurveto
            -42 -48 -36 -82 -26 hvcurveto
            endchar
          </CharString>
          <CharString index="147">
            23 callsubr
            hvcurveto
            return
          </CharString>
          <CharString index="148">
            hlineto
            -30 -18 -68 -58 -70 vvcurveto
            -46 callgsubr
            return
          </CharString>
          <CharString index="149">
            -6 -28 -2 -20 -20 vvcurveto
            return
          </CharString>
          <CharString index="150">
            -43 0 -56 callgsubr
            50 122 hstem
            return
          </CharString>
          <CharString index="151">
            rmoveto
            28 18 -22 -52 58 callgsubr
            hvcurveto
            34 170 rlineto
            44 24 34 12 26 hhcurveto
            endchar
          </CharString>
          <CharString index="152">
            -17 -13 callsubr
            85 -21 148 120 262 120 return
          </CharString>
          <CharString index="153">
            -62 vhcurveto
            76 -92 rlineto
            26 34 26 20 34 hhcurveto
            return
          </CharString>
          <CharString index="154">
            rmoveto
            102 hlineto
            124 -31 callgsubr
            return
          </CharString>
          <CharString index="155">
            vstem
            56 264 rmoveto
            -176 102 -100 return
          </CharString>
          <CharString index="156">
            rmoveto
            42 callsubr
            return
          </CharString>
          <CharString index="157">
            -303 80 callgsubr
            return
          </CharString>
          <CharString index="158">
            vstem
            72 callsubr
            return
          </CharString>
          <CharString index="159">
            hlineto
            79 callsubr
            return
          </CharString>
          <CharString index="160">
            hstemhm
            18 156 return
          </CharString>
          <CharString index="161">
            -12 94 176 94 -42 94 176 94 hstemhm
            50 52 callgsubr
            80 52 callgsubr
            return
          </CharString>
          <CharString index="162">
            12 callsubr
            50 122 hstem
            -6 return
          </CharString>
          <CharString index="163">
            -33 132 callgsubr
            21 callgsubr
            -36 124 hintmask 11111000
            return
          </CharString>
          <CharString index="164">
            vstem
            144 54 73 callgsubr
            return
          </CharString>
          <CharString index="165">
            -21 376 136 0 -20 204 -20 return
          </CharString>
          <CharString index="166">
            rmoveto
            -120 hlineto
            62 -122 rlineto
            90 hlineto
            return
          </CharString>
          <CharString index="167">
            hstemhm
            32 164 return
          </CharString>
          <CharString index="168">
            59 callgsubr
            74 160 return
          </CharString>
          <CharString index="169">
            -39 -42 callsubr
            return
          </CharString>
          <CharString index="170">
            hstemhm
            78 callsubr
            return
          </CharString>
          <CharString index="171">
            rmoveto
            16 callsubr
            return
          </CharString>
          <CharString index="172">
            rlineto
            112 hlineto
            return
          </CharString>
          <CharString index="173">
            108 callgsubr
            72 -52 callsubr
            60 callsubr
            -66 180 return
          </CharString>
          <CharString index="174">
            -13 callsubr
            52 128 268 128 hstemhm
            26 162 -106 180 86 162 return
          </CharString>
          <CharString index="175">
            130 0 -20 204 -20 hstemhm
            364 166 return
          </CharString>
          <CharString index="176">
            50 -2 18 -10 -16 vvcurveto
            -20 -20 -6 -26 -4 vhcurveto
            return
          </CharString>
          <CharString index="177">
            60 callsubr
            -164 return
          </CharString>
          <CharString index="178">
            136 400 138 return
          </CharString>
          <CharString index="179">
            26 -44 callgsubr
            return
          </CharString>
          <CharString index="180">
            rmoveto
            36 30 28 32 34 -28 16 -30 -36 -30 -28 -32 -34 28 -16 30 hvcurveto
            endchar
          </CharString>
          <CharString index="181">
            30 callsubr
            hintmask 11101100
            77 callsubr
            return
          </CharString>
          <CharString index="182">
            101 callsubr
            82 152 hstemhm
            8 return
          </CharString>
          <CharString index="183">
            122 160 108 138 122 hstemhm
            404 154 -132 164 return
          </CharString>
          <CharString index="184">
            40 16 -44 61 hhcurveto
            49 54 46 94 26 hvcurveto
            return
          </CharString>
          <CharString index="185">
            26 150 168 130 return
          </CharString>
          <CharString index="186">
            130 650 rlineto
            return
          </CharString>
          <CharString index="187">
            146 54 146 return
          </CharString>
          <CharString index="188">
            rmoveto
            126 hlineto
            return
          </CharString>
          <CharString index="189">
            -243 252 82 58 66 58 84 39 101 hstem
            50 103 108 90 vstem
            return
          </CharString>
          <CharString index="190">
            rmoveto
            -100 -28 -88 -82 -130 vvcurveto
            return
          </CharString>
          <CharString index="191">
            -26 -12 -16 -12 -14 hhcurveto
            return
          </CharString>
          <CharString index="192">
            43 callsubr
            26 return
          </CharString>
          <CharString index="193">
            97 callgsubr
            34 199 return
          </CharString>
          <CharString index="194">
            134 516 -20 return
          </CharString>
          <CharString index="195">
            24 -42 hhcurveto
            -138 return
          </CharString>
          <CharString index="196">
            376 124 return
          </CharString>
          <CharString index="197" raw="1">
            6c1d0e   
          </CharString>
          <CharString index="198">
            66 44 56 56 return
          </CharString>
          <CharString index="199">
            20 100 rcurveline
            -432 hlineto
            -26 -134 rlineto
            254 hlineto
            -124 return
          </CharString>
          <CharString index="200">
            130 -109 -21 394 130 -12 -20 -6 callsubr
            return
          </CharString>
          <CharString index="201">
            198 rmoveto
            240 hlineto
            24 112 rlineto
            -240 hlineto
            endchar
          </CharString>
          <CharString index="202">
            rmoveto
            92 54 56 66 16 hvcurveto
            -70 hlineto
            return
          </CharString>
          <CharString index="203">
            -301 -188 126 562 -20 return
          </CharString>
          <CharString index="204">
            258 -124 124 hstemhm
            return
          </CharString>
          <CharString index="205">
            68 -120 rlineto
            88 hlineto
            return
          </CharString>
          <CharString index="206">
            650 rlineto
            -152 hlineto
            return
          </CharString>
          <CharString index="207">
            150 50 150 return
          </CharString>
          <CharString index="208">
            -179 21 12 callgsubr
            return
          </CharString>
          <CharString index="209">
            176 -102 100 -150 -172 -164 -156 -242 return
          </CharString>
          <CharString index="210">
            221 -86 callgsubr
            -60 -300 -64 -36 -28 -126 return
          </CharString>
          <CharString index="211">
            16 -6 hvcurveto
            18 102 rlineto
            34 18 22 8 18 hhcurveto
            endchar
          </CharString>
          <CharString index="212">
            -12 122 130 157 127 122 hstemhm
            36 return
          </CharString>
          <CharString index="213">
            -42 -16 22 26 -2 hvcurveto
            -68 hlineto
            return
          </CharString>
          <CharString index="214">
            -21 266 140 244 -20 return
          </CharString>
          <CharString index="215">
            64 -130 vlineto
            return
          </CharString>
          <CharString index="216">
            200 hmoveto
            48 return
          </CharString>
          <CharString index="217">
            -52 122 rlineto
            return
          </CharString>
          <CharString index="218">
            756 rmoveto
            274 hlineto
            16 74 rlineto
            -274 hlineto
            return
          </CharString>
          <CharString index="219">
            280 672 83 callsubr
            return
          </CharString>
          <CharString index="220">
            50 -4 20 -8 -16 vvcurveto
            -20 -20 -6 -26 -4 vhcurveto
            return
          </CharString>
          <CharString index="221">
            92 90 78 62 92 hstem
            return
          </CharString>
          <CharString index="222">
            -152 84 692 84 return
          </CharString>
          <CharString index="223">
            rlineto
            164 hlineto
            return
          </CharString>
          <CharString index="224">
            74 hlineto
            60 28 -24 -48 -54 -40 -34 -80 hvcurveto
            return
          </CharString>
          <CharString index="225">
            21 -21 146 122 232 134 hstem
            return
          </CharString>
          <CharString index="226">
            -195 -12 124 -103 -21 388 124 return
          </CharString>
          <CharString index="227">
            -315 -250 1000 hstem
            86 98 vstem
            86 return
          </CharString>
          <CharString index="228">
            41 210 rlineto
            24 22 16 12 18 hhcurveto
            16 return
          </CharString>
          <CharString index="229">
            rlineto
            220 -70 callsubr
            -358 hlineto
            return
          </CharString>
          <CharString index="230">
            rlineto
            212 hlineto
            18 84 rlineto
            return
          </CharString>
          <CharString index="231">
            101 -19 callgsubr
            return
          </CharString>
          <CharString index="232">
            rmoveto
            -48 30 48 -32 return
          </CharString>
          <CharString index="233">
            112 36 118 return
          </CharString>
          <CharString index="234">
            0 -20 32 -20 return
          </CharString>
          <CharString index="235">
            116 290 118 134 callgsubr
            return
          </CharString>
          <CharString index="236">
            -229 260 74 68 66 46 85 hstem
            return
          </CharString>
          <CharString index="237">
            -3 callsubr
            68 105 callgsubr
            return
          </CharString>
          <CharString index="238">
            rmoveto
            -126 hlineto
            66 -152 rlineto
            96 hlineto
            return
          </CharString>
          <CharString index="239">
            -19 -155 -21 164 130 264 return
          </CharString>
          <CharString index="240">
            rlineto
            -194 hlineto
            return
          </CharString>
          <CharString index="241">
            rlineto
            168 hlineto
            return
          </CharString>
        <CharString name=".notdef">
          97 0 98 464 98 hstem
          26 654 vstem
          26 hmoveto
          524 hlineto
          130 660 rlineto
          -524 hlineto
          124 -320 rmoveto
          -118 -178 72 354 rlineto
          198 -176 rmoveto
          118 176 -72 -354 rlineto
          -194 2 rmoveto
          54 96 rlineto
          4 hlineto
          16 -96 14 -66 rlineto
          -130 hlineto
          132 320 rmoveto
          -4 hlineto
          -20 96 -12 48 rlineto
          122 hlineto
          -28 -48 rlineto
          endchar
        </CharString>
        <CharString name="A">
          -60 callgsubr
          hstem
          -66 594 vstem
          232 268 -88 callsubr
        </CharString>
        <CharString name="AE">
          273 0 134 6 124 4 134 114 134 -114 114 hstemhm
          -36 904 hintmask 01001100
          295 264 rmoveto
          55 96 35 60 33 54 36 62 rlinecurve
          3 hlineto
          -54 -272 rlineto
          hintmask 10110100
          439 252 rmoveto
          26 -45 callsubr
          -496 hlineto
          -408 -650 rlineto
          180 hlineto
          hintmask 01010100
          80 140 rlineto
          154 hlineto
          hintmask 10110100
          -28 -140 rlineto
          398 -70 callsubr
          -238 -20 callgsubr
          194 -70 callsubr
          -194 hlineto
          22 114 rlineto
          endchar
        </CharString>
        <CharString name="Aacute">
          -60 callgsubr
          50 122 hstem
          -66 620 vstem
          554 35 callgsubr
          -180 -432 -102 callgsubr
          endchar
        </CharString>
        <CharString name="Abreve">
          -60 callgsubr
          50 122 hstem
          254 84 vstem
          38 callgsubr
          -292 -554 -88 callsubr
        </CharString>
        <CharString name="Acircumflex">
          -60 callgsubr
          50 122 hstem
          -66 600 vstem
          378 760 rmoveto
          -72 callsubr
          -116 -122 rlineto
          126 hlineto
          -88 -432 -102 callgsubr
          endchar
        </CharString>
        <CharString name="Adieresis">
          -60 callgsubr
          46 148 hstem
          206 80 callsubr
          vstem
          470 696 rmoveto
          -87 callsubr
          -200 hmoveto
          -87 callsubr
          -38 -428 -102 callgsubr
          endchar
        </CharString>
        <CharString name="Agrave">
          -60 callgsubr
          50 122 hstem
          -66 594 vstem
          438 56 callgsubr
          -86 -432 -88 callsubr
        </CharString>
        <CharString name="Amacron">
          -60 callgsubr
          66 102 hstem
          -66 594 vstem
          528 112 callgsubr
          -276 -448 -102 callgsubr
          endchar
        </CharString>
        <CharString name="Aogonek">
          -17 -226 102 145 -21 148 120 262 120 hstemhm
          -66 594 -232 124 hintmask 01111000
          232 268 rmoveto
          34 76 28 62 22 60 26 64 rlinecurve
          4 hlineto
          -66 2 -58 2 -62 vhcurveto
          2 -76 rlineto
          114 382 rmoveto
          -192 hlineto
          -73 callgsubr
          hintmask 11110100
          179 hlineto
          4 -148 rlineto
          32 hlineto
          -34 -24 -62 -54 -68 -3 callgsubr
          24 38 84 28 hvcurveto
          endchar
        </CharString>
        <CharString name="Aring">
          -60 callgsubr
          46 60 82 60 hstem
          270 76 76 76 vstem
          388 838 rmoveto
          22 12 -16 -18 -26 -20 -22 -22 -22 -12 16 18 24 18 24 24 hvcurveto
          -10 -142 rmoveto
          66 54 50 64 60 -52 28 -56 -66 -54 -52 -62 -62 50 -26 58 hvcurveto
          -146 -428 -88 callsubr
        </CharString>
        <CharString name="Atilde">
          -60 callgsubr
          48 105 callgsubr
          -66 628 hintmask 11110100
          480 838 rmoveto
          -30 -13 -13 -12 -14 hhcurveto
          hintmask 11101100
          -31 callsubr
          82 hlineto
          30 callsubr
          hintmask 11110100
          77 callsubr
          -330 -570 -102 callgsubr
          endchar
        </CharString>
        <CharString name="B">
          33 0 76 callsubr
          hintmask 11110000
          68 callgsubr
          hintmask 11101000
          19 callgsubr
          hintmask 11110000
          117 callsubr
          endchar
        </CharString>
        <CharString name="C">
          -5 -21 callsubr
          101 callgsubr
          -78 callsubr
          endchar
        </CharString>
        <CharString name="Cacute">
          -5 -21 callsubr
          38 122 101 callgsubr
          -78 callsubr
          296 436 -58 callsubr
        </CharString>
        <CharString name="Ccaron">
          -5 -21 callsubr
          38 122 101 callgsubr
          -78 callsubr
          572 558 -81 callsubr
        </CharString>
        <CharString name="Ccedilla">
          -5 -222 62 176 -21 529 138 hstemhm
          56 164 20 118 hintmask 11110000
          444 172 rmoveto
          -26 -30 -36 -20 -34 hhcurveto
          -88 -36 54 94 140 84 110 94 30 24 -16 -36 24 hvcurveto
          108 84 rlineto
          68 -38 -64 38 -76 hhcurveto
          -192 23 callsubr
          -149 73 -95 115 -25 hvcurveto
          hintmask 11111000
          -48 -71 rlineto
          -69 callsubr
          19 31 81 7 63 43 33 31 rlinecurve
          endchar
        </CharString>
        <CharString name="Ccircumflex">
          -5 -21 callsubr
          38 122 101 callgsubr
          -78 callsubr
          208 436 -85 callgsubr
          endchar
        </CharString>
        <CharString name="Cdotaccent">
          -5 -21 callsubr
          36 164 101 callgsubr
          140 180 -78 callsubr
          388 434 -107 callsubr
        </CharString>
        <CharString name="D">
          47 0 128 394 128 hstem
          436 -53 callsubr
          endchar
        </CharString>
        <CharString name="Dcaron">
          47 0 128 394 128 50 122 hstem
          436 -53 callsubr
          352 694 -81 callsubr
        </CharString>
        <CharString name="Dcroat">
          -25 callgsubr
        </CharString>
        <CharString name="E">
          -43 0 -56 callgsubr
          -18 callgsubr
          endchar
        </CharString>
        <CharString name="Eacute">
          85 callsubr
          528 vstem
          -103 callgsubr
          126 50 -58 callsubr
        </CharString>
        <CharString name="Ebreve">
          43 callsubr
          254 84 vstem
          -103 callgsubr
          208 50 -54 callgsubr
        </CharString>
        <CharString name="Ecaron">
          85 callsubr
          532 vstem
          -103 callgsubr
          402 172 -81 callsubr
        </CharString>
        <CharString name="Ecircumflex">
          -43 0 134 134 134 114 134 50 122 -18 callgsubr
          38 50 -85 callgsubr
          endchar
        </CharString>
        <CharString name="Edieresis">
          -43 0 -56 callgsubr
          46 148 hstemhm
          26 526 -346 80 callsubr
          hintmask 11101000
          -103 callgsubr
          hintmask 11110110
          114 46 rmoveto
          -87 callsubr
          200 hmoveto
          -87 callsubr
          endchar
        </CharString>
        <CharString name="Edotaccent">
          -43 0 -56 callgsubr
          48 164 hstem
          290 180 vstem
          -103 callgsubr
          218 48 -107 callsubr
        </CharString>
        <CharString name="Egrave">
          -43 0 134 134 134 114 134 50 122 -18 callgsubr
          162 50 -5 callgsubr
        </CharString>
        <CharString name="Emacron">
          -43 0 -56 callgsubr
          66 102 -18 callgsubr
          72 66 -13 callgsubr
        </CharString>
        <CharString name="Eogonek">
          -43 -226 102 124 -56 callgsubr
          hstemhm
          26 526 -340 124 hintmask 01111000
          26 hmoveto
          hintmask 11110100
          282 hlineto
          -28 -18 -68 -58 -70 -3 callgsubr
          36 56 60 10 hvcurveto
          26 -45 callsubr
          -246 hlineto
          28 134 -61 callgsubr
          22 114 -61 callsubr
          endchar
        </CharString>
        <CharString name="Eth">
          -25 callgsubr
        </CharString>
        <CharString name="Euro">
          -59 -12 128 102 80 48 76 -76 80 102 128 hstemhm
          14 546 -483 161 hintmask 11011100
          380 218 rmoveto
          16 80 rlineto
          hintmask 11011010
          -158 hlineto
          1 16 2 17 3 15 rrcurveto
          200 hlineto
          16 80 133 callsubr
          61 26 41 41 57 hhcurveto
          26 16 -16 -30 14 hvcurveto
          114 76 rlineto
          58 -34 -46 40 -74 hhcurveto
          hintmask 11101010
          -131 -115 -88 -144 -53 hvcurveto
          -51 -4 -16 -74 rlineto
          45 hlineto
          -3 -16 -2 -17 -2 -17 -48 -4 rcurveline
          -16 -74 rlineto
          63 hlineto
          -149 7 81 -81 129 hhcurveto
          54 66 18 60 70 hvcurveto
          -74 94 rlineto
          -26 -26 -28 -18 -28 hhcurveto
          -53 -30 37 65 -7 hvcurveto
          endchar
        </CharString>
        <CharString name="F">
          -63 21 -21 248 134 65 callgsubr
          hstem
          26 526 51 callsubr
          50 248 -61 callgsubr
          26 134 -61 callsubr
          endchar
        </CharString>
        <CharString name="G">
          7 callsubr
          101 callgsubr
          vstem
          -101 callgsubr
          endchar
        </CharString>
        <CharString name="Gbreve">
          7 callsubr
          38 122 101 callgsubr
          98 84 vstem
          -101 callgsubr
          372 436 -54 callgsubr
        </CharString>
        <CharString name="Gcaron">
          7 callsubr
          38 122 101 callgsubr
          vstem
          -101 callgsubr
          566 558 -81 callsubr
        </CharString>
        <CharString name="Gcircumflex">
          7 callsubr
          38 122 101 callgsubr
          vstem
          -101 callgsubr
          202 436 -85 callgsubr
          endchar
        </CharString>
        <CharString name="Gdotaccent">
          7 callsubr
          36 164 101 callgsubr
          134 180 vstem
          -101 callgsubr
          382 434 -107 callsubr
        </CharString>
        <CharString name="H">
          85 21 107 callsubr
          hstem
          26 642 -43 callgsubr
          endchar
        </CharString>
        <CharString name="Hbar">
          85 21 -21 266 140 82 76 -76 162 hstemhm
          26 724 hintmask 11011000
          460 406 rmoveto
          -194 hlineto
          17 82 rlineto
          193 hlineto
          hintmask 11101000
          274 76 rmoveto
          -99 hlineto
          hintmask 11011000
          17 86 -86 callgsubr
          hintmask 11101000
          -17 -86 rlineto
          -193 hlineto
          hintmask 11011000
          18 86 -86 callgsubr
          -17 -87 -57 -5 -14 -70 rlineto
          56 hlineto
          -98 -488 rlineto
          -47 callsubr
          52 266 rlineto
          194 hlineto
          -54 -266 rlineto
          -47 callsubr
          98 488 rlineto
          100 hlineto
          endchar
        </CharString>
        <CharString name="Hcircumflex">
          85 21 107 callsubr
          70 122 hstem
          26 642 -43 callgsubr
          78 50 -85 callgsubr
          endchar
        </CharString>
        <CharString name="I">
          33 callsubr
          hstem
          26 290 -27 callgsubr
          endchar
        </CharString>
        <CharString name="I.a">
          12 callsubr
          hstem
          -6 422 vstem
          -93 callsubr
          endchar
        </CharString>
        <CharString name="Iacute">
          33 callsubr
          70 122 hstem
          26 396 -27 callgsubr
          -6 50 -58 callsubr
        </CharString>
        <CharString name="Iacute.a">
          55 callsubr
          464 vstem
          -93 callsubr
          164 566 -58 callsubr
        </CharString>
        <CharString name="Icircumflex">
          33 callsubr
          70 122 hstem
          26 376 -27 callgsubr
          -94 50 -85 callgsubr
          endchar
        </CharString>
        <CharString name="Icircumflex.a">
          55 callsubr
          444 vstem
          -93 callsubr
          76 566 -85 callgsubr
          endchar
        </CharString>
        <CharString name="Idieresis">
          33 callsubr
          66 148 hstemhm
          26 394 -346 80 callsubr
          hintmask 11110000
          -38 callgsubr
          hintmask 11101100
          -18 46 rmoveto
          -87 callsubr
          200 hmoveto
          -87 callsubr
          endchar
        </CharString>
        <CharString name="Idieresis.a">
          12 callsubr
          46 148 hstemhm
          -6 462 -346 80 callsubr
          hintmask 11010000
          -93 callsubr
          hintmask 11101100
          152 562 rmoveto
          -87 callsubr
          200 hmoveto
          -87 callsubr
          endchar
        </CharString>
        <CharString name="Idotaccent">
          33 callsubr
          68 164 hstem
          158 180 -27 callgsubr
          86 48 -107 callsubr
        </CharString>
        <CharString name="Idotaccent.a">
          -197 122 callgsubr
          194 180 vstem
          -93 callsubr
          256 564 -107 callsubr
        </CharString>
        <CharString name="Igrave">
          33 callsubr
          70 122 hstem
          26 290 -27 callgsubr
          30 50 -5 callgsubr
        </CharString>
        <CharString name="Igrave.a">
          55 callsubr
          422 vstem
          -93 callsubr
          200 566 -5 callgsubr
        </CharString>
        <CharString name="Imacron">
          33 callsubr
          86 102 hstem
          26 370 -27 callgsubr
          -60 66 -13 callgsubr
        </CharString>
        <CharString name="Imacron.a">
          12 callsubr
          66 102 hstem
          -6 438 vstem
          -93 callsubr
          110 582 -13 callgsubr
        </CharString>
        <CharString name="Iogonek">
          -269 -226 102 145 34 callgsubr
          hstem
          -34 124 vstem
          90 -94 rmoveto
          28 28 44 68 22 vhcurveto
          -21 callgsubr
          -130 -650 rlineto
          38 41 callsubr
          hvcurveto
          endchar
        </CharString>
        <CharString name="Iogonek.a">
          -197 -226 102 124 16 callgsubr
          hstemhm
          -6 422 -416 124 hintmask 01110000
          -6 hmoveto
          hintmask 11101000
          104 41 callsubr
          28 28 44 68 22 hvcurveto
          66 -89 callsubr
          endchar
        </CharString>
        <CharString name="Itilde">
          -269 123 callgsubr
          404 hintmask 11011000
          -38 callgsubr
          -12 50 -59 callgsubr
        </CharString>
        <CharString name="Itilde.a">
          12 callsubr
          48 105 callgsubr
          -6 472 hintmask 11011000
          -93 callsubr
          158 566 -59 callgsubr
        </CharString>
        <CharString name="J">
          -75 -19 callgsubr
          hstem
          -10 524 18 callsubr
          endchar
        </CharString>
        <CharString name="Jcircumflex">
          -75 59 callgsubr
          -10 608 18 callsubr
          -168 489 -85 callgsubr
          endchar
        </CharString>
        <CharString name="K">
          43 -3 callsubr
          hstem
          26 632 -16 callgsubr
          endchar
        </CharString>
        <CharString name="L">
          -65 0 87 callsubr
          hstem
          26 422 vstem
          -41 callgsubr
          endchar
        </CharString>
        <CharString name="Lacute">
          -65 0 87 callsubr
          70 122 hstem
          26 422 vstem
          -41 callgsubr
          12 50 -58 callsubr
        </CharString>
        <CharString name="Lcaron">
          -65 0 134 372 144 -144 226 hstemhm
          26 512 hintmask 11010000
          -41 callgsubr
          310 -144 rmoveto
          hintmask 10110000
          56 152 16 74 rlineto
          -100 hlineto
          hintmask 11010000
          -40 -226 rlineto
          endchar
        </CharString>
        <CharString name="Ldot">
          -65 0 87 callsubr
          hstemhm
          26 498 -190 190 hintmask 11100000
          -41 callgsubr
          hintmask 11010000
          258 -422 -40 callsubr
          endchar
        </CharString>
        <CharString name="Lslash">
          -65 0 87 callsubr
          hstem
          -8 456 vstem
          240 272 rmoveto
          182 94 26 132 -181 -94 49 246 -86 callgsubr
          -65 -327 -73 -37 -26 -132 72 37 -38 -191 rlineto
          396 20 callsubr
          endchar
        </CharString>
        <CharString name="M">
          175 21 -21 444 206 0 -20 hstemhm
          26 732 hintmask 10110000
          26 hmoveto
          146 hlineto
          44 216 rlineto
          hintmask 11010000
          -1 callgsubr
          endchar
        </CharString>
        <CharString name="N">
          73 -3 callsubr
          hstem
          26 630 vstem
          -96 callgsubr
          endchar
        </CharString>
        <CharString name="Nacute">
          73 -3 callsubr
          70 122 hstem
          26 630 vstem
          -96 callgsubr
          178 50 -58 callsubr
        </CharString>
        <CharString name="Ncaron">
          73 -3 callsubr
          70 122 hstem
          26 630 vstem
          -96 callgsubr
          454 172 -81 callsubr
        </CharString>
        <CharString name="Ntilde">
          73 123 callgsubr
          630 hintmask 11011000
          -96 callgsubr
          172 50 -59 callgsubr
        </CharString>
        <CharString name="O">
          0 callsubr
          hstem
          22 callgsubr
          vstem
          -105 callgsubr
          endchar
        </CharString>
        <CharString name="OE">
          261 0 128 -128 -56 callgsubr
          -128 128 hstemhm
          56 164 hintmask 01110100
          56 256 rmoveto
          -176 110 -80 182 vhcurveto
          388 20 callsubr
          28 134 rlineto
          192 -70 callsubr
          -192 hlineto
          22 114 rlineto
          228 -70 callsubr
          -440 hlineto
          -204 -156 -130 -264 hvcurveto
          hintmask 10101100
          388 266 rmoveto
          -78 -394 rlineto
          -14 hlineto
          -76 -56 36 102 188 92 68 108 hvcurveto
          endchar
        </CharString>
        <CharString name="Oacute">
          0 callsubr
          38 122 hstem
          22 callgsubr
          vstem
          -105 callgsubr
          -48 176 -58 callsubr
        </CharString>
        <CharString name="Ocircumflex">
          0 callsubr
          38 122 hstem
          22 callgsubr
          vstem
          -105 callgsubr
          -136 176 -85 callgsubr
          endchar
        </CharString>
        <CharString name="Odieresis">
          0 callsubr
          34 148 hstemhm
          56 164 40 80 callsubr
          -126 164 hintmask 11111010
          -105 callgsubr
          -60 172 rmoveto
          -87 callsubr
          hintmask 11111100
          200 hmoveto
          -87 callsubr
          endchar
        </CharString>
        <CharString name="Ograve">
          0 callsubr
          38 122 hstem
          22 callgsubr
          vstem
          -105 callgsubr
          -12 176 -5 callgsubr
        </CharString>
        <CharString name="Ohorn">
          0 callsubr
          hstemhm
          22 callgsubr
          -54 124 hintmask 11110000
          316 126 -23 callsubr
          hintmask 11101000
          -65 callsubr
          hintmask 11110000
          4 callsubr
          hintmask 11101000
          84 17 47 50 65 -55 callsubr
        </CharString>
        <CharString name="Ohungarumlaut">
          0 callsubr
          38 122 hstem
          22 callgsubr
          vstem
          -105 callgsubr
          -104 176 13 callsubr
        </CharString>
        <CharString name="Omacron">
          0 callsubr
          54 102 hstem
          22 callgsubr
          vstem
          -105 callgsubr
          -102 192 -13 callgsubr
        </CharString>
        <CharString name="Oslash">
          0 callsubr
          hstem
          22 callgsubr
          vstem
          480 387 rmoveto
          -4 0 -3 -4 vvcurveto
          -150 -90 -100 -74 -26 -21 10 19 -16 vhcurveto
          -33 102 rmoveto
          6 0 5 6 vvcurveto
          150 90 100 74 27 23 -11 -21 16 vhcurveto
          276 146 rmoveto
          -70 64 -96 -98 rlineto
          38 -43 -58 20 -67 hhcurveto
          -172 -164 -156 -242 -56 10 -49 19 -40 hvcurveto
          -97 -99 70 -64 85 87 rlineto
          -36 43 56 -19 66 hhcurveto
          172 164 156 242 54 -10 47 -17 39 hvcurveto
          endchar
        </CharString>
        <CharString name="Otilde">
          0 callsubr
          36 105 callgsubr
          22 callgsubr
          hintmask 11011100
          -105 callgsubr
          -54 176 rmoveto
          74 callsubr
          -82 hlineto
          75 callgsubr
          endchar
        </CharString>
        <CharString name="P">
          17 21 -21 212 126 186 126 hstem
          442 158 51 callsubr
          42 212 rlineto
          66 hlineto
          163 143 70 190 130 -101 48 -129 hvcurveto
          -214 hlineto
          98 -312 rmoveto
          36 186 rlineto
          58 hlineto
          59 35 -24 -52 -72 -47 -38 -82 hvcurveto
          endchar
        </CharString>
        <CharString name="Q">
          91 -182 128 71 -21 528 138 hstem
          22 callgsubr
          vstem
          384 524 rmoveto
          60 36 -54 -94 -150 -90 -100 -74 -60 -36 54 94 150 90 100 74 hvcurveto
          188 -568 rmoveto
          -6 -22 -20 -4 -28 hhcurveto
          -49 -51 15 35 -28 hvcurveto
          146 34 124 146 210 vvcurveto
          102 callsubr
          -131 56 -89 91 -37 vhcurveto
          -127 51 95 -62 143 hhcurveto
          24 38 8 10 24 hvcurveto
          endchar
        </CharString>
        <CharString name="R">
          33 21 86 callgsubr
          442 158 vstem
          290 524 -92 callgsubr
        </CharString>
        <CharString name="Racute">
          33 21 26 callsubr
          50 122 hstem
          442 158 vstem
          574 35 callgsubr
          -142 -176 -92 callgsubr
        </CharString>
        <CharString name="Rcaron">
          33 21 26 callsubr
          50 122 hstem
          442 158 vstem
          462 700 rmoveto
          116 122 -18 callsubr
          -58 -60 rlineto
          -2 hlineto
          -38 60 rlineto
          -116 hlineto
          68 -122 rlineto
          -16 -176 -92 callgsubr
        </CharString>
        <CharString name="S">
          -41 -12 71 callsubr
          hstem
          102 164 62 166 vstem
          -100 callsubr
          endchar
        </CharString>
        <CharString name="Sacute">
          -41 -12 71 callsubr
          46 122 hstem
          102 164 62 166 vstem
          -100 callsubr
          162 505 -58 callsubr
        </CharString>
        <CharString name="Scaron">
          -41 -12 71 callsubr
          46 122 hstem
          102 164 62 166 vstem
          -100 callsubr
          438 627 -81 callsubr
        </CharString>
        <CharString name="Scircumflex">
          -41 -12 71 callsubr
          46 122 hstem
          102 164 62 166 vstem
          -100 callsubr
          74 505 -85 callgsubr
          endchar
        </CharString>
        <CharString name="T">
          -39 21 -21 516 134 hstem
          80 514 -33 callsubr
          endchar
        </CharString>
        <CharString name="Tcaron">
          -39 21 -21 516 134 50 122 hstem
          80 514 -33 callsubr
          300 306 -81 callsubr
        </CharString>
        <CharString name="Thorn">
          29 21 -21 122 126 186 126 100 -20 hstem
          428 158 vstem
          26 hmoveto
          158 hlineto
          24 122 rlineto
          70 hlineto
          162 146 70 190 130 -94 48 -118 hvcurveto
          -78 hlineto
          20 100 -86 callgsubr
          78 -412 rmoveto
          36 186 rlineto
          72 hlineto
          54 32 -24 -52 -72 -48 -38 -84 hvcurveto
          endchar
        </CharString>
        <CharString name="U">
          27 callgsubr
          hstem
          74 160 vstem
          -104 callgsubr
          endchar
        </CharString>
        <CharString name="Uacute">
          75 61 callsubr
          vstem
          -104 callgsubr
          178 50 -58 callsubr
        </CharString>
        <CharString name="Ubreve">
          75 61 callsubr
          68 84 vstem
          -104 callgsubr
          260 50 -54 callgsubr
        </CharString>
        <CharString name="Ucircumflex">
          75 61 callsubr
          vstem
          -104 callgsubr
          90 50 -85 callgsubr
          endchar
        </CharString>
        <CharString name="Udieresis">
          27 callgsubr
          66 148 hstemhm
          74 160 20 80 callsubr
          hintmask 11110100
          -104 callgsubr
          hintmask 11111100
          166 46 rmoveto
          -87 callsubr
          200 hmoveto
          -87 callsubr
          endchar
        </CharString>
        <CharString name="Ugrave">
          75 61 callsubr
          vstem
          -104 callgsubr
          214 50 -5 callgsubr
        </CharString>
        <CharString name="Uhorn">
          124 callsubr
          hstem
          74 160 440 124 vstem
          666 758 -91 callgsubr
        </CharString>
        <CharString name="Uhungarumlaut">
          75 61 callsubr
          vstem
          -104 callgsubr
          122 50 13 callsubr
        </CharString>
        <CharString name="Umacron">
          27 callgsubr
          86 102 hstem
          74 160 vstem
          -104 callgsubr
          124 66 -13 callgsubr
        </CharString>
        <CharString name="Uogonek">
          75 -226 102 139 -21 656 -20 hstemhm
          74 160 -74 124 hintmask 11110000
          662 650 rmoveto
          -156 -99 callgsubr
          -64 -318 rlineto
          -6 -34 -8 -46 -30 vvcurveto
          -134 60 -74 114 -20 vhcurveto
          hintmask 11101000
          -34 -24 -54 -56 -60 -3 callgsubr
          26 36 68 24 hvcurveto
          117 44 61 70 32 178 rrcurveto
          endchar
        </CharString>
        <CharString name="Uring">
          27 callgsubr
          66 60 82 60 hstem
          74 160 84 76 76 76 vstem
          -104 callgsubr
          274 46 24 callgsubr
        </CharString>
        <CharString name="Utilde">
          27 callgsubr
          68 105 callgsubr
          74 160 hintmask 11011000
          -104 callgsubr
          172 50 -59 callgsubr
        </CharString>
        <CharString name="V">
          -3 0 140 510 -20 hstem
          78 582 vstem
          132 hmoveto
          194 hlineto
          334 650 rlineto
          -176 hlineto
          -132 -304 -29 -69 -28 -68 -29 -69 rlinecurve
          -4 hlineto
          69 -2 69 -2 68 vhcurveto
          -12 304 rlineto
          -168 hlineto
          endchar
        </CharString>
        <CharString name="W">
          63 callgsubr
          hstem
          84 128 214 128 vstem
          -94 callsubr
          endchar
        </CharString>
        <CharString name="Wacute">
          63 callgsubr
          70 122 hstem
          84 128 214 128 vstem
          -94 callsubr
          302 50 -58 callsubr
        </CharString>
        <CharString name="Wcircumflex">
          63 callgsubr
          70 122 hstem
          84 128 214 128 vstem
          -94 callsubr
          214 50 -85 callgsubr
          endchar
        </CharString>
        <CharString name="Wdieresis">
          63 callgsubr
          66 148 hstemhm
          84 128 112 146 -44 128 -30 146 hintmask 11110100
          -94 callsubr
          hintmask 11111010
          290 46 rmoveto
          -87 callsubr
          200 hmoveto
          -87 callsubr
          endchar
        </CharString>
        <CharString name="Wgrave">
          63 callgsubr
          70 122 hstem
          84 128 214 128 vstem
          -94 callsubr
          338 50 -5 callgsubr
        </CharString>
        <CharString name="X">
          -3 -3 callsubr
          hstem
          -36 662 vstem
          -36 hmoveto
          170 hlineto
          76 126 20 34 20 33 22 39 rlinecurve
          4 hlineto
          8 -39 8 -33 8 -34 28 -126 rcurveline
          178 hlineto
          -106 328 226 322 rlineto
          -170 hlineto
          -64 -114 -17 -30 -21 -35 -22 -41 rlinecurve
          -4 hlineto
          -9 41 -7 35 -6 30 -24 114 rcurveline
          -178 hlineto
          98 -316 rlineto
          endchar
        </CharString>
        <CharString name="Y">
          98 callgsubr
          hstem
          79 539 vstem
          -94 callgsubr
          endchar
        </CharString>
        <CharString name="Yacute">
          98 callgsubr
          70 122 hstem
          79 539 vstem
          -94 callgsubr
          76 472 -58 callsubr
        </CharString>
        <CharString name="Ycircumflex">
          98 callgsubr
          70 122 hstem
          79 539 vstem
          -94 callgsubr
          -12 472 -85 callgsubr
          endchar
        </CharString>
        <CharString name="Ydieresis">
          98 callgsubr
          66 148 hstemhm
          79 539 -436 80 callsubr
          hintmask 11110000
          -94 callgsubr
          hintmask 11101100
          64 468 rmoveto
          -87 callsubr
          200 hmoveto
          -87 callsubr
          endchar
        </CharString>
        <CharString name="Ygrave">
          98 callgsubr
          70 122 hstem
          79 539 vstem
          -94 callgsubr
          112 472 -5 callgsubr
        </CharString>
        <CharString name="Z">
          -49 1 callsubr
          hstem
          -6 568 -49 callgsubr
          endchar
        </CharString>
        <CharString name="Zacute">
          -49 1 callsubr
          50 122 hstem
          -6 568 -49 callgsubr
          256 604 -58 callsubr
        </CharString>
        <CharString name="Zcaron">
          -49 1 callsubr
          50 122 hstem
          -6 568 -49 callgsubr
          532 726 -81 callsubr
        </CharString>
        <CharString name="Zdotaccent">
          -49 122 callgsubr
          278 180 -49 callgsubr
          348 602 -107 callsubr
        </CharString>
        <CharString name="a">
          -78 callgsubr
          -6 callsubr
          hintmask 01010100
          -92 callsubr
          hintmask 00101100
          -68 callgsubr
          hintmask 00110100
          -71 callsubr
          hintmask 01010100
          -67 callsubr
          hintmask 10010100
          -103 callsubr
          endchar
        </CharString>
        <CharString name="a.a">
          -64 callgsubr
          28 callsubr
          hintmask 01111100
          -87 callgsubr
          hintmask 10111100
          -106 callsubr
          hintmask 01111100
          -77 callgsubr
          hintmask 10111100
          -79 callgsubr
          hintmask 01111100
          -15 callsubr
          endchar
        </CharString>
        <CharString name="a.supa">
          129 callsubr
          52 108 90 111 vstem
          52 -20 callsubr
        </CharString>
        <CharString name="a.sups">
          -12 callgsubr
        </CharString>
        <CharString name="aacute">
          -78 callgsubr
          94 152 -6 callsubr
          -98 callgsubr
          4 456 -58 callgsubr
        </CharString>
        <CharString name="aacute.a">
          -64 callgsubr
          62 152 -99 callsubr
          -74 356 -58 callgsubr
        </CharString>
        <CharString name="abreve">
          -78 callgsubr
          94 84 -6 callsubr
          26 88 -98 callgsubr
          hintmask 00101111
          92 456 -96 callsubr
          endchar
        </CharString>
        <CharString name="abreve.a">
          -64 callgsubr
          62 84 53 callsubr
          26 88 30 158 hintmask 01111110
          -87 callgsubr
          hintmask 10111011
          -98 callsubr
          hintmask 01111010
          14 356 -96 callsubr
          endchar
        </CharString>
        <CharString name="acircumflex">
          -78 callgsubr
          94 152 -6 callsubr
          -98 callgsubr
          -62 456 -91 callsubr
          endchar
        </CharString>
        <CharString name="acircumflex.a">
          -64 callgsubr
          62 152 -99 callsubr
          -140 356 -91 callsubr
          endchar
        </CharString>
        <CharString name="acute">
          -39 53 callgsubr
          244 274 vstem
          244 574 -58 callgsubr
        </CharString>
        <CharString name="adieresis">
          -78 callgsubr
          86 148 -6 callsubr
          -24 100 callsubr
          hintmask 0101011010000000
          -92 callsubr
          hintmask 0010111010000000
          -68 callgsubr
          hintmask 0011011010000000
          -71 callsubr
          hintmask 0101011010000000
          -67 callsubr
          hintmask 1001011010000000
          -103 callsubr
          hintmask 0010110110000000
          -4 448 -95 callgsubr
        </CharString>
        <CharString name="adieresis.a">
          -64 callgsubr
          54 148 53 callsubr
          -24 150 18 158 -126 150 hintmask 0111110010000000
          -87 callgsubr
          hintmask 1011110100000000
          -106 callsubr
          hintmask 0111110010000000
          -77 callgsubr
          hintmask 1011110010000000
          -79 callgsubr
          hintmask 0111110010000000
          -15 callsubr
          hintmask 0111101010000000
          -82 348 -95 callgsubr
        </CharString>
        <CharString name="ae">
          173 -12 120 94 96 -80 96 76 122 53 callsubr
          122 140 158 130 hintmask 10111110
          18 114 rmoveto
          -76 58 -50 78 72 54 28 47 57 vhcurveto
          -41 29 60 -34 70 hhcurveto
          76 60 24 28 38 hvcurveto
          -56 100 rlineto
          -16 -22 -34 -16 -26 hhcurveto
          hintmask 11011110
          -56 -42 28 66 2 hvcurveto
          260 hlineto
          8 14 20 56 50 vvcurveto
          104 -44 86 -122 -48 -49 -20 -36 -43 vhcurveto
          38 -25 -41 18 -56 hhcurveto
          -68 -68 -20 -30 -62 hvcurveto
          34 -110 rlineto
          22 48 40 14 36 hhcurveto
          38 22 -18 -44 hvcurveto
          hintmask 10111110
          -4 0 -4 -4 vvcurveto
          -162 -4 -136 -48 -148 vvcurveto
          hintmask 11011110
          430 184 rmoveto
          64 20 36 28 34 hhcurveto
          42 14 -26 -34 -12 -2 -6 -2 -14 hvcurveto
          hintmask 10111110
          -294 -80 rmoveto
          -2 -24 2 -18 2 -18 rrcurveto
          -32 -26 -28 -16 -24 hhcurveto
          -28 -18 14 22 38 34 32 88 2 hvcurveto
          endchar
        </CharString>
        <CharString name="agrave">
          -78 callgsubr
          94 152 -6 callsubr
          -98 callgsubr
          62 456 -32 callgsubr
        </CharString>
        <CharString name="agrave.a">
          -64 callgsubr
          62 152 -99 callsubr
          -16 356 -32 callgsubr
        </CharString>
        <CharString name="amacron">
          -78 callgsubr
          110 100 -6 callsubr
          -98 callgsubr
          -42 472 -82 callsubr
          endchar
        </CharString>
        <CharString name="amacron.a">
          -64 callgsubr
          78 100 -99 callsubr
          -120 372 -82 callsubr
          endchar
        </CharString>
        <CharString name="ampersand">
          73 -12 120 450 104 hstemhm
          14 154 -28 132 97 123 hintmask 11101000
          168 170 rmoveto
          30 18 25 28 23 vhcurveto
          27 -44 33 -42 37 -37 rrcurveto
          -12 -26 -25 -5 -24 hhcurveto
          -44 -24 26 36 hvcurveto
          hintmask 11011000
          104 300 rmoveto
          56 33 32 33 20 11 -11 -22 -48 -38 -30 -52 -28 vhcurveto
          -4 17 -3 17 17 vvcurveto
          244 -98 rmoveto
          -24 -59 -30 -51 -41 -47 -35 31 -33 36 -26 38 rrcurveto
          82 49 83 56 97 vvcurveto
          86 -52 54 -92 -118 -90 -90 -106 -34 7 -36 13 -37 vhcurveto
          hintmask 11101000
          -77 -42 -69 -57 -106 vvcurveto
          -98 70 -68 124 75 66 21 38 57 vhcurveto
          46 -30 49 -20 47 -9 62 126 rcurveline
          -25 6 -34 10 -34 17 61 70 45 76 37 79 rrcurveto
          endchar
        </CharString>
        <CharString name="aogonek">
          -21 -212 94 106 93 callsubr
          38 114 hintmask 10110110
          28 172 rmoveto
          -118 52 -66 88 48 58 28 46 44 vhcurveto
          2 -62 hlineto
          -26 -20 -62 -50 -66 vvcurveto
          -62 callgsubr
          40 40 34 64 16 hvcurveto
          hintmask 10101110
          54 callgsubr
          -128 hlineto
          hintmask 10110110
          -71 callsubr
          -67 callsubr
          hintmask 11010110
          -103 callsubr
          endchar
        </CharString>
        <CharString name="aogonek.a">
          -57 -212 94 106 122 -101 -21 33 -21 218 96 74 124 53 callsubr
          22 114 8 158 hintmask 1001111110000000
          285 hmoveto
          -27 -20 -62 -50 -66 vvcurveto
          -62 callgsubr
          40 40 34 64 16 hvcurveto
          hintmask 0010111010000000
          54 270 rlineto
          6 28 2 24 22 vvcurveto
          112 -66 56 -114 -68 -72 -20 -30 -62 vhcurveto
          48 -110 rlineto
          24 48 30 12 40 hhcurveto
          34 24 -16 -44 -4 0 -4 -2 -6 hvcurveto
          -162 -4 -136 -48 -148 vvcurveto
          -76 56 -50 70 vhcurveto
          hintmask 0010111110000000
          50 52 28 32 32 hvcurveto
          4 hlineto
          hintmask 1001111110000000
          3 -48 rlineto
          hintmask 0100111010000000
          13 218 rmoveto
          -16 -76 rlineto
          -18 -20 -18 -14 -24 hhcurveto
          -28 -18 14 22 38 34 32 90 2 hvcurveto
          endchar
        </CharString>
        <CharString name="approxequal">
          -59 120 108 -34 108 58 108 -34 108 hstemhm
          36 462 hintmask 01011000
          116 380 124 callgsubr
          hintmask 01101000
          29 callgsubr
          hintmask 01011000
          77 callgsubr
          80 -294 124 callgsubr
          hintmask 10011000
          29 callgsubr
          hintmask 01011000
          77 callgsubr
          endchar
        </CharString>
        <CharString name="aring">
          -78 callgsubr
          70 60 88 60 -6 callsubr
          44 76 72 76 hintmask 0101011111000000
          -92 callsubr
          hintmask 0010111111000000
          -68 callgsubr
          hintmask 0011011111000000
          -71 callsubr
          hintmask 0101011111000000
          -67 callsubr
          hintmask 1001011111000000
          -103 callsubr
          104 432 -57 callsubr
        </CharString>
        <CharString name="aring.a">
          -64 callgsubr
          38 60 88 60 53 callsubr
          44 76 24 158 -110 76 hintmask 0111111101000000
          -87 callgsubr
          hintmask 1011111101000000
          3 -48 rlineto
          hintmask 1011111110000000
          129 hlineto
          54 270 rlineto
          6 28 2 24 22 vvcurveto
          112 -66 56 -114 -68 -72 -20 -30 -62 vhcurveto
          48 -110 rlineto
          24 48 30 12 40 hhcurveto
          34 24 -16 -44 -4 0 -4 -2 -6 hvcurveto
          hintmask 0111111101000000
          -77 callgsubr
          hintmask 1011111101000000
          -79 callgsubr
          hintmask 0111111101000000
          -15 callsubr
          26 332 -57 callsubr
        </CharString>
        <CharString name="arrowdown">
          131 callgsubr
          298 -28 rmoveto
          268 268 -84 74 -122 -130 rlineto
          346 -128 -346 vlineto
          -122 130 -84 -74 268 -268 rlineto
          endchar
        </CharString>
        <CharString name="arrowup">
          131 callgsubr
          294 530 rmoveto
          -268 -268 84 -74 122 130 rlineto
          -346 128 346 vlineto
          122 -130 84 74 -268 268 rlineto
          endchar
        </CharString>
        <CharString name="asciicircum">
          -63 272 398 -144 144 hstemhm
          68 426 hintmask 10100000
          68 272 rmoveto
          130 hlineto
          38 118 rlineto
          hintmask 01100000
          44 136 rlineto
          4 hlineto
          42 -136 38 -118 rlineto
          130 hlineto
          -150 398 -18 callsubr
          endchar
        </CharString>
        <CharString name="asciitilde">
          -59 240 108 -34 108 hstemhm
          36 462 hintmask 01100000
          116 260 124 callgsubr
          hintmask 10100000
          29 callgsubr
          hintmask 01100000
          77 callgsubr
          endchar
        </CharString>
        <CharString name="asterisk">
          -127 328 386 hstem
          92 384 vstem
          172 340 rmoveto
          90 84 64 -96 74 42 -38 110 114 40 -12 80 -118 -14 8 122 -82 6 -34 -118 -110 34 -36 -74 98 -58 -78 -102 rlineto
          endchar
        </CharString>
        <CharString name="at">
          307 -176 96 116 98 -88 98 200 100 138 92 hstemhm
          42 108 104 118 378 100 hintmask 11011111
          630 134 rmoveto
          -40 -12 24 54 12 hvcurveto
          52 224 rlineto
          -96 hlineto
          -16 -40 rlineto
          -2 hlineto
          34 -16 -22 14 -30 hhcurveto
          -112 -94 -122 -128 hvcurveto
          hintmask 10111111
          -88 54 -60 74 40 48 26 38 24 vhcurveto
          4 hlineto
          hintmask 11011111
          -50 13 43 -24 46 hhcurveto
          136 114 108 218 172 -124 140 -214 -250 -220 -224 -288 -228 166 -110 182 57 54 16 28 57 hvcurveto
          -42 86 rlineto
          -20 -32 -48 -14 -32 hhcurveto
          -122 -132 82 178 228 184 174 162 192 62 -118 -118 -142 -70 -70 -50 hvcurveto
          hintmask 10111111
          -258 68 rmoveto
          60 40 82 52 18 12 -8 -18 8 vhcurveto
          -30 -130 rlineto
          -32 -22 -16 -12 -18 hhcurveto
          -30 -14 22 36 hvcurveto
          endchar
        </CharString>
        <CharString name="at.case">
          267 -36 90 82 98 -88 98 166 100 106 88 hstemhm
          82 104 80 117 325 97 hintmask 11011111
          615 234 rmoveto
          -34 -10 24 54 13 hvcurveto
          47 190 rlineto
          -95 hlineto
          -18 -40 rlineto
          -1 hlineto
          34 -13 -20 14 -27 hhcurveto
          -106 -85 -113 -111 hvcurveto
          hintmask 10111111
          -83 46 -57 68 35 47 26 38 23 vhcurveto
          4 hlineto
          hintmask 11011111
          -50 10 39 -24 43 hhcurveto
          123 101 104 194 146 -93 124 -205 -211 -214 -180 -267 -186 124 -107 161 46 60 9 29 48 hvcurveto
          -17 80 rlineto
          -18 -29 -56 -10 -29 hhcurveto
          -118 -86 75 148 191 168 148 143 163 48 -91 -98 -124 -54 -69 -39 hvcurveto
          hintmask 10111111
          -232 62 rmoveto
          46 29 68 45 15 10 -8 -18 5 vhcurveto
          -21 -96 rlineto
          -32 -19 -14 -12 -15 hhcurveto
          -24 -11 20 32 hvcurveto
          endchar
        </CharString>
        <CharString name="atilde">
          -78 callgsubr
          94 98 -56 98 -6 callsubr
          hintmask 01010011
          -92 callsubr
          hintmask 00101011
          -68 callgsubr
          hintmask 00110011
          -71 callsubr
          hintmask 01010011
          -67 callsubr
          hintmask 10010011
          -103 callsubr
          14 458 17 callsubr
          hintmask 00101101
          -66 callgsubr
          hintmask 00101011
          -41 callsubr
          endchar
        </CharString>
        <CharString name="atilde.a">
          -64 callgsubr
          62 98 -56 98 28 callsubr
          hintmask 01110111
          -87 callgsubr
          hintmask 10110111
          -106 callsubr
          hintmask 01110111
          -77 callgsubr
          hintmask 10110111
          -79 callgsubr
          hintmask 01110111
          -15 callsubr
          -64 358 17 callsubr
          hintmask 01111011
          -66 callgsubr
          hintmask 01110111
          -41 callsubr
          endchar
        </CharString>
        <CharString name="b">
          -19 -12 130 -97 -21 382 68 callsubr
          hintmask 01011100
          140 hmoveto
          hintmask 10011100
          22 50 rlineto
          2 hlineto
          -38 18 40 -24 42 hhcurveto
          7 callgsubr
          hintmask 01101100
          93 callgsubr
          hintmask 10101100
          58 callgsubr
          vhcurveto
          34 170 rlineto
          hintmask 01101100
          44 24 34 12 26 hhcurveto
          endchar
        </CharString>
        <CharString name="b.sups">
          -205 252 90 168 90 hstem
          276 114 vstem
          128 260 rmoveto
          16 34 rlineto
          4 hlineto
          -25 12 24 -17 28 119 callgsubr
          -34 -18 -22 -24 hvcurveto
          -4 hlineto
          21 64 19 96 89 callgsubr
          -92 -460 rlineto
          210 250 rmoveto
          16 12 -14 -32 -72 -36 -50 -36 -12 -14 8 104 callsubr
        </CharString>
        <CharString name="backslash">
          -255 -160 870 hstem
          84 164 vstem
          144 -160 rmoveto
          104 hlineto
          -62 870 rlineto
          -102 hlineto
          endchar
        </CharString>
        <CharString name="bar">
          120 callsubr
          -250 rmoveto
          98 1000 -98 hlineto
          endchar
        </CharString>
        <CharString name="braceleft">
          -237 115 callsubr
          hstemhm
          44 132 -82 126 hintmask 11100000
          44 -62 rmoveto
          -58 26 -32 74 vhcurveto
          68 hlineto
          16 84 rlineto
          -14 hlineto
          -30 -8 9 25 hvcurveto
          hintmask 11010000
          54 44 112 66 vvcurveto
          46 -21 19 -40 9 vhcurveto
          1 4 55 12 33 32 16 80 rlinecurve
          11 58 6 47 10 51 rrcurveto
          52 10 13 16 37 hhcurveto
          16 hlineto
          18 84 rlineto
          -70 hlineto
          -92 -37 -36 -110 -22 hvcurveto
          -14 -70 4 -30 -12 -62 -7 -34 -25 -40 -66 -2 -20 -92 rcurveline
          54 -2 16 -28 -30 vvcurveto
          hintmask 11100000
          -45 -50 -109 -80 vvcurveto
          endchar
        </CharString>
        <CharString name="braceright">
          -233 115 callsubr
          hstemhm
          133 126 -82 132 hintmask 11010000
          309 618 rmoveto
          58 -26 32 -74 vhcurveto
          -68 hlineto
          -16 -84 rlineto
          14 hlineto
          30 8 -9 -25 hvcurveto
          hintmask 11100000
          -54 -44 -112 -66 vvcurveto
          -46 21 -19 40 -9 vhcurveto
          -1 -4 -55 -12 -33 -32 -16 -80 rlinecurve
          -11 -58 -6 -47 -10 -51 rrcurveto
          -52 -10 -13 -16 -37 hhcurveto
          -16 hlineto
          -18 -84 rlineto
          70 hlineto
          92 37 36 110 22 hvcurveto
          14 70 -4 30 12 62 7 34 25 40 66 2 20 92 rcurveline
          -54 2 -16 28 30 vvcurveto
          hintmask 11010000
          45 50 109 80 vvcurveto
          endchar
        </CharString>
        <CharString name="bracketleft">
          -235 115 callsubr
          hstem
          -8 384 vstem
          128 -68 rmoveto
          138 692 96 callgsubr
          -172 -860 123 callsubr
          endchar
        </CharString>
        <CharString name="bracketright">
          -233 115 callsubr
          hstem
          -22 384 vstem
          -4 -68 rmoveto
          -18 -84 rlineto
          212 hlineto
          172 860 rlineto
          -212 hlineto
          -16 -84 rlineto
          92 hlineto
          -138 -692 rlineto
          endchar
        </CharString>
        <CharString name="breve">
          -39 574 84 hstem
          220 88 vstem
          332 574 -96 callsubr
          endchar
        </CharString>
        <CharString name="brokenbar">
          120 callsubr
          316 rmoveto
          98 434 -98 hlineto
          -548 vmoveto
          -452 98 452 vlineto
          endchar
        </CharString>
        <CharString name="bullet">
          -235 120 284 hstem
          38 268 vstem
          160 120 rmoveto
          88 58 82 76 74 -52 52 -70 -88 -58 -82 -76 -74 52 -52 70 hvcurveto
          endchar
        </CharString>
        <CharString name="c">
          -133 -42 callsubr
          hstem
          26 164 -76 callgsubr
          endchar
        </CharString>
        <CharString name="c.sups">
          -281 252 87 173 88 hstem
          50 113 vstem
          50 384 rmoveto
          -83 61 -49 74 45 40 18 17 20 vhcurveto
          -35 69 rlineto
          -8 -13 -11 -9 -21 hhcurveto
          -25 -22 18 40 61 36 54 47 15 9 -6 -13 11 hvcurveto
          63 67 rlineto
          20 -20 -33 20 -41 hhcurveto
          -115 -85 -99 -117 hvcurveto
          endchar
        </CharString>
        <CharString name="cacute">
          -133 132 callgsubr
          hstem
          26 164 -76 callgsubr
          208 378 -58 callgsubr
        </CharString>
        <CharString name="caron">
          -39 53 callgsubr
          210 310 vstem
          520 726 -86 callsubr
        </CharString>
        <CharString name="ccaron">
          -133 132 callgsubr
          hstem
          26 164 -76 callgsubr
          484 530 -86 callsubr
        </CharString>
        <CharString name="ccedilla">
          -133 -222 62 178 -21 387 128 hstemhm
          26 164 -34 118 hintmask 11110000
          330 144 rmoveto
          -14 -18 -20 -14 -30 hhcurveto
          -48 -24 32 50 102 54 84 72 24 16 -10 -18 18 hvcurveto
          88 94 rlineto
          30 -24 -48 32 -64 hhcurveto
          -172 -128 -148 -168 -105 56 -70 79 -24 hvcurveto
          hintmask 11101000
          -49 -73 rlineto
          -69 callsubr
          19 31 67 5 46 27 34 25 rlinecurve
          endchar
        </CharString>
        <CharString name="ccircumflex">
          -133 132 callgsubr
          hstem
          26 164 -76 callgsubr
          142 378 -91 callsubr
          endchar
        </CharString>
        <CharString name="cdotaccent">
          -133 -42 callsubr
          52 164 hstem
          26 164 56 180 -76 callgsubr
          304 368 -107 callsubr
        </CharString>
        <CharString name="cedilla">
          -39 -222 62 118 46 hstem
          166 118 vstem
          122 -76 rmoveto
          -69 callsubr
          28 46 rlineto
          -92 hlineto
          endchar
        </CharString>
        <CharString name="cent">
          -59 -20 698 hstem
          70 156 vstem
          263 216 rmoveto
          -24 19 -13 33 42 vvcurveto
          64 31 53 52 22 vhcurveto
          105 -219 rmoveto
          -22 -16 -22 -10 -24 -4 50 255 rcurveline
          15 -5 14 -10 15 -14 92 86 rcurveline
          -30 33 -33 29 -48 10 19 94 rcurveline
          -86 hlineto
          -18 -94 rlineto
          -136 -20 -130 -108 -170 vvcurveto
          -120 65 -76 99 -17 vhcurveto
          -18 -93 rlineto
          86 hlineto
          18 93 50 7 47 19 45 29 rlinecurve
          endchar
        </CharString>
        <CharString name="circumflex">
          -39 53 callgsubr
          178 310 vstem
          178 574 -91 callsubr
          endchar
        </CharString>
        <CharString name="colon">
          -269 -12 516 -196 196 hstemhm
          24 190 -136 190 hintmask 01010000
          158 308 -40 callsubr
          hintmask 10100000
          -54 -320 -40 callsubr
          endchar
        </CharString>
        <CharString name="colonmonetary">
          -59 10 -21 28 -21 hstemhm
          54 154 hintmask 01100000
          371 528 rmoveto
          13 10 -2 -4 10 hvcurveto
          -126 -402 -11 3 -10 5 -8 8 rlinecurve
          -34 58 rmoveto
          -5 17 -2 19 22 vvcurveto
          119 38 108 69 36 vhcurveto
          83 -355 rmoveto
          -22 -19 -23 -15 -23 -7 116 371 rcurveline
          6 -8 6 -9 6 -11 110 72 rcurveline
          -23 39 -27 33 -35 22 39 126 rcurveline
          -52 hlineto
          -33 -106 -10 3 -11 2 -11 1 rlinecurve
          31 100 rlineto
          -52 hlineto
          -31 -99 rlineto
          -169 -15 -136 -162 -236 vvcurveto
          -112 38 -77 67 -38 vhcurveto
          -39 -125 rlineto
          52 hlineto
          33 106 10 -2 11 -3 11 -1 rlinecurve
          hintmask 10100000
          -31 -100 rlineto
          52 hlineto
          31 99 53 3 63 20 67 54 rlinecurve
          endchar
        </CharString>
        <CharString name="comma">
          -269 -196 380 -182 182 hstemhm
          26 198 hintmask 10100000
          -10 -196 rmoveto
          36 callsubr
          endchar
        </CharString>
        <CharString name="comma.dnom">
          -369 -132 97 callsubr
          0 138 hintmask 10100000
          -24 -132 -17 callgsubr
        </CharString>
        <CharString name="comma.numr">
          -369 138 97 callsubr
          50 138 hintmask 10100000
          26 138 -17 callgsubr
        </CharString>
        <CharString name="comma.subs">
          -369 -302 97 callsubr
          -40 138 hintmask 10100000
          -64 -302 -17 callgsubr
        </CharString>
        <CharString name="comma.sups">
          -369 308 97 callsubr
          80 138 hintmask 10100000
          56 308 -17 callgsubr
        </CharString>
        <CharString name="copyright">
          95 -8 68 68 92 204 92 72 68 hstem
          28 72 72 114 318 72 vstem
          172 284 rmoveto
          -96 64 -60 96 45 47 14 34 42 vhcurveto
          -44 68 rlineto
          -17 -26 -14 -7 -24 hhcurveto
          -46 -26 30 48 74 52 52 46 18 18 -6 -18 16 hvcurveto
          66 64 rlineto
          24 -20 -38 28 -46 hhcurveto
          -106 -120 -90 -142 hvcurveto
          126 -292 -1 callsubr
        </CharString>
        <CharString name="currency">
          -59 128 112 180 112 hstem
          52 146 152 146 vstem
          402 86 rmoveto
          84 72 -47 57 rlineto
          35 38 22 51 60 vvcurveto
          27 -6 24 -10 22 vhcurveto
          64 55 -68 80 -71 -61 rlineto
          13 -28 -34 8 -37 hhcurveto
          -36 -37 -8 -15 -34 hvcurveto
          -51 63 -84 -72 45 -55 rlineto
          -35 -39 -22 -50 -60 vvcurveto
          -28 6 -26 11 -22 vhcurveto
          -63 -54 68 -80 72 62 rlineto
          -14 28 32 -6 36 hhcurveto
          36 37 7 15 34 hvcurveto
          -61 270 rmoveto
          38 24 -24 -44 -66 -44 -46 -46 -38 -24 26 42 66 44 46 46 hvcurveto
          endchar
        </CharString>
        <CharString name="d">
          -29 0 118 -109 -21 33 -21 382 130 184 -20 -24 callgsubr
          endchar
        </CharString>
        <CharString name="d.sups">
          -193 260 82 168 90 hstem
          52 114 vstem
          296 562 rmoveto
          -4 hlineto
          20 -10 -24 18 -28 hhcurveto
          -92 -86 -100 -126 -78 36 -44 58 31 39 18 30 28 hvcurveto
          4 -40 90 hlineto
          92 460 89 callgsubr
          -18 -92 rlineto
          -106 -286 rmoveto
          -16 -12 14 32 72 36 50 36 11 14 -8 -16 7 hvcurveto
          -18 -102 rlineto
          -34 -18 -22 -8 -18 hhcurveto
          endchar
        </CharString>
        <CharString name="dagger">
          -71 423 118 hstem
          74 452 vstem
          124 -80 rmoveto
          128 hlineto
          92 508 158 -10 24 128 -162 -10 46 176 rlineto
          -128 hlineto
          -26 -176 -156 10 -26 -128 162 10 rlineto
          endchar
        </CharString>
        <CharString name="daggerdbl">
          -71 89 117 219 116 hstem
          8 518 vstem
          8 84 rmoveto
          160 10 -44 -174 rlineto
          128 hlineto
          24 174 158 -10 26 128 -162 -12 32 116 14 116 158 -14 24 128 -162 -10 44 176 -18 callsubr
          -26 -176 -158 10 -24 -128 162 14 -34 -116 -12 -116 -158 12 rlineto
          endchar
        </CharString>
        <CharString name="dcaron">
          1 0 -71 callgsubr
          36 148 -24 callgsubr
          424 430 15 callgsubr
        </CharString>
        <CharString name="dcroat">
          -23 0 118 -109 -21 33 -21 362 130 60 76 -76 144 -140.5 72.5 -72.5 140.5 -6 callsubr
          hintmask 1001001010000000
          328 184 rmoveto
          -54 -28 -34 -12 -26 hhcurveto
          -28 -18 22 52 90 54 80 58 18 22 -12 -26 10 hvcurveto
          286 304 rmoveto
          -66 hlineto
          hintmask 0011010010000000
          14 68 -86 callgsubr
          hintmask 0011100010000000
          -13 -68 rlineto
          -139 hlineto
          hintmask 0101010010000000
          -14 -76 rlineto
          138 hlineto
          -4 -22 -10 -94 rlineto
          -2 hlineto
          34 -16 -34 22 -42 hhcurveto
          -138 -128 -152 -168 -118 52 -66 88 48 58 28 46 127 callgsubr
          hintmask 0011000110000000
          -62 130 vlineto
          111 553 65 5 rlineto
          endchar
        </CharString>
        <CharString name="degree">
          -217 392 76 142 76 hstem
          92 84 124 84 vstem
          224 392 rmoveto
          84 76 72 90 80 -54 52 -78 -84 -76 -72 -90 -80 54 -52 78 hvcurveto
          22 218 rmoveto
          36 18 -26 -30 -46 -28 -40 -42 -36 -18 26 30 46 28 40 42 hvcurveto
          endchar
        </CharString>
        <CharString name="dieresis">
          -39 566 148 hstem
          170 100 callsubr
          vstem
          236 566 -95 callgsubr
        </CharString>
        <CharString name="divide">
          -59 68 162 44 112 44 162 hstem
          186 172 vstem
          272 430 rmoveto
          48 38 34 48 46 -38 34 -48 -48 -38 -34 -46 -48 38 -34 48 hvcurveto
          -362 vmoveto
          48 38 32 48 46 -38 36 -48 -48 -38 -36 -46 -48 38 -32 48 hvcurveto
          224 206 rmoveto
          50 callgsubr
          endchar
        </CharString>
        <CharString name="dollar">
          -59 -110 226 -99 -21 532 226 hstemhm
          94 158 40 158 hintmask 01111000
          510 562 rmoveto
          -36 42 -41 28 -45 14 20 108 rcurveline
          -104 hlineto
          -19 -100 rlineto
          -116 -12 -75 -80 -108 vvcurveto
          hintmask 10111000
          -150 198 -32 -96 vvcurveto
          -38 -24 -22 -48 -48 -42 32 38 -30 vhcurveto
          hintmask 01111000
          -98 -96 41 -48 54 -32 56 -14 rlinecurve
          hintmask 10111000
          -21 -106 rlineto
          104 hlineto
          21 101 rlineto
          118 14 75 81 110 158 -198 32 86 vvcurveto
          32 22 24 40 34 36 -22 -34 26 vhcurveto
          endchar
        </CharString>
        <CharString name="dong">
          -59 0 78 48 96 156 106 60 80 hstem
          66 136 vstem
          24 hmoveto
          394 hlineto
          16 78 rlineto
          -394 hlineto
          266 176 rmoveto
          -24 -22 -18 -8 -22 hhcurveto
          -26 -16 18 38 68 44 32 32 20 14 -8 -16 14 hvcurveto
          252 270 rmoveto
          -68 hlineto
          10 50 rlineto
          -130 hlineto
          -10 -50 rlineto
          -138 hlineto
          -16 -80 rlineto
          139 hlineto
          -7 -34 -10 -62 rlineto
          24 -20 -20 12 -42 hhcurveto
          -86 -114 -82 -144 -90 46 -52 78 38 40 18 28 30 hvcurveto
          2 hlineto
          2 -36 rlineto
          108 hlineto
          84 418 70 6 rlineto
          endchar
        </CharString>
        <CharString name="dotaccent">
          -39 564 164 hstem
          256 180 vstem
          340 564 -107 callsubr
        </CharString>
        <CharString name="dotlessi">
          50 callsubr
          hstem
          8 260 vstem
          -38 callsubr
          endchar
        </CharString>
        <CharString name="e">
          -33 callgsubr
          hstem
          78 callsubr
          vstem
          -107 callgsubr
          endchar
        </CharString>
        <CharString name="e.sups">
          -243 252 82 58 66 58 84 hstem
          50 103 108 90 vstem
          50 396 -48 callgsubr
        </CharString>
        <CharString name="eacute">
          -33 callgsubr
          62 152 hstem
          78 callsubr
          vstem
          -107 callgsubr
          -104 276 -58 callgsubr
        </CharString>
        <CharString name="eacute.sups">
          82 callsubr
          190 639 rmoveto
          82 hlineto
          104 101 rlineto
          -109 hlineto
          -217 -344 -48 callgsubr
        </CharString>
        <CharString name="ebreve">
          -33 callgsubr
          62 84 hstem
          26 150 36 88 44 130 vstem
          -107 callgsubr
          -16 276 -96 callsubr
          endchar
        </CharString>
        <CharString name="ecaron">
          -33 callgsubr
          62 152 hstem
          78 callsubr
          vstem
          -107 callgsubr
          172 428 -86 callsubr
        </CharString>
        <CharString name="ecircumflex">
          -33 callgsubr
          62 152 hstem
          78 callsubr
          vstem
          -107 callgsubr
          -170 276 -91 callsubr
          endchar
        </CharString>
        <CharString name="edieresis">
          -33 callgsubr
          54 148 hstemhm
          26 150 -14 150 32 130 -112 150 hintmask 11111010
          -107 callgsubr
          hintmask 11110101
          -112 268 -95 callgsubr
        </CharString>
        <CharString name="edotaccent">
          -33 callgsubr
          52 164 hstemhm
          26 150 72 180 -84 130 hintmask 11111010
          -107 callgsubr
          hintmask 11111100
          -8 266 -107 callsubr
        </CharString>
        <CharString name="egrave">
          -33 callgsubr
          62 152 hstem
          78 callsubr
          vstem
          -107 callgsubr
          -46 276 -32 callgsubr
        </CharString>
        <CharString name="egrave.sups">
          82 callsubr
          228 639 rmoveto
          76 hlineto
          -38 101 rlineto
          -100 hlineto
          -116 -344 -48 callgsubr
        </CharString>
        <CharString name="eight">
          -97 callgsubr
        </CharString>
        <CharString name="eight.dnom">
          -213 -12 78 256 80 hstemhm
          4 28 callgsubr
          hintmask 11101000
          112 104 -90 callsubr
        </CharString>
        <CharString name="eight.numr">
          -213 258 78 256 80 hstemhm
          54 28 callgsubr
          hintmask 11101000
          162 374 -90 callsubr
        </CharString>
        <CharString name="eight.onum">
          -97 callgsubr
        </CharString>
        <CharString name="eight.pnum">
          -97 callgsubr
        </CharString>
        <CharString name="eight.subs">
          -213 -182 78 256 80 hstemhm
          -36 28 callgsubr
          hintmask 11101000
          72 -66 -90 callsubr
        </CharString>
        <CharString name="eight.sups">
          -213 428 78 256 80 hstemhm
          84 28 callgsubr
          hintmask 11101000
          192 544 -90 callsubr
        </CharString>
        <CharString name="eight.tnum">
          -97 callgsubr
        </CharString>
        <CharString name="ellipsis">
          403 -12 196 hstem
          64 190 126 190 126 190 vstem
          144 -12 -40 callsubr
          316 hmoveto
          -56 callsubr
          316 hmoveto
          -56 callsubr
          endchar
        </CharString>
        <CharString name="emacron">
          -33 callgsubr
          78 100 hstem
          78 callsubr
          vstem
          -107 callgsubr
          -150 292 -82 callsubr
          endchar
        </CharString>
        <CharString name="emdash">
          55 callgsubr
        </CharString>
        <CharString name="endash">
          -115 202 102 hstem
          34 396 vstem
          34 202 rmoveto
          376 hlineto
          20 102 rlineto
          -376 hlineto
          endchar
        </CharString>
        <CharString name="eogonek">
          -77 -212 94 106 120 94 96 92 122 hstemhm
          26 150 -10 114 64 130 hintmask 11110110
          166 -136 rmoveto
          -62 callgsubr
          28 18 46 122 56 hvcurveto
          -56 100 rlineto
          -16 -22 -34 -16 -28 hhcurveto
          hintmask 11111010
          -58 -44 28 66 -2 hvcurveto
          270 hlineto
          8 14 20 56 50 vvcurveto
          104 -44 86 -122 -134 -148 -124 -184 -134 86 -82 124 vhcurveto
          1 2 0 1 hhcurveto
          hintmask 11110110
          -10 -10 -64 -48 -66 vvcurveto
          22 434 rmoveto
          64 22 40 28 38 -60 callsubr
          endchar
        </CharString>
        <CharString name="equal">
          -59 154 112 128 95 callgsubr
          394 rmoveto
          50 callgsubr
          448 -240 rmoveto
          50 callgsubr
          endchar
        </CharString>
        <CharString name="estimated">
          221 -12 20 308 18 306 20 hstem
          66 130 450 128 vstem
          204 108 rmoveto
          -4 6 -4 6 8 vvcurveto
          184 vlineto
          2 2 2 2 vhcurveto
          574 hlineto
          2 0 4 2 vvcurveto
          186 -158 150 -196 -196 -158 -150 -186 -186 158 -150 196 114 102 52 80 66 vhcurveto
          -52 hlineto
          -68 -56 -82 -44 -90 hhcurveto
          -86 -78 38 62 -54 hvcurveto
          -4 226 rmoveto
          -2 -2 2 4 hvcurveto
          180 vlineto
          8 4 8 4 6 vhcurveto
          60 56 76 38 86 hhcurveto
          82 76 -36 -58 56 hvcurveto
          6 -6 4 -8 -8 vvcurveto
          -184 vlineto
          -4 -2 -2 -4 vhcurveto
          endchar
        </CharString>
        <CharString name="eth">
          -37 -12 128 222 120 248 -20 hstem
          30 144 179 151 vstem
          240 116 rmoveto
          -44 -22 36 46 66 34 74 72 32 26 -19 -24 15 hvcurveto
          -106 -11 -41 -73 -61 hhcurveto
          322 516 rmoveto
          -30 74 -144 -57 -37 37 -44 32 -51 26 rlinecurve
          -72 -92 28 -18 25 -18 21 -19 rlinecurve
          -120 -47 30 -74 144 57 22 -36 13 -40 6 -45 rlinecurve
          31 -22 -35 15 -38 hhcurveto
          -146 -82 -142 -130 -124 89 -74 107 192 86 192 180 86 -23 75 -41 63 hvcurveto
          endchar
        </CharString>
        <CharString name="exclam">
          -229 -12 196 -175 -21 hstemhm
          46 190 hintmask 01100000
          120 238 rmoveto
          104 hlineto
          82 292 32 140 -86 callgsubr
          -20 -140 rlineto
          -32 -542 rmoveto
          91 callsubr
          hvcurveto
          hintmask 10100000
          48 -32 36 -48 -66 -44 -58 -54 vhcurveto
          hintmask 01100000
          91 callgsubr
          vhcurveto
          endchar
        </CharString>
        <CharString name="exclamdown">
          -229 316 196 0 -20 hstemhm
          118 190 hintmask 01100000
          234 262 rmoveto
          -104 hlineto
          -82 -292 -32 -140 rlineto
          -47 callsubr
          20 140 rlineto
          32 542 rmoveto
          -66 -44 -56 -56 hvcurveto
          hintmask 10100000
          -48 32 -36 48 66 44 58 54 vhcurveto
          hintmask 01100000
          50 -32 34 -48 vhcurveto
          endchar
        </CharString>
        <CharString name="f">
          -235 21 72 callgsubr
          82 126 hstem
          34 424 vstem
          -9 callgsubr
          50 112 rlineto
          0 callgsubr
          -2 -14 -66 -6 rlineto
          endchar
        </CharString>
        <CharString name="f.sups">
          -346 506 86 57 86 hstem
          56 287 vstem
          343 716 rmoveto
          12 -23 -27 7 -27 hhcurveto
          -87 -39 -61 -69 -14 hvcurveto
          -3 -14 -45 -5 -14 -80 rlineto
          42 hlineto
          -50 -246 rlineto
          111 hlineto
          50 246 rlineto
          55 hlineto
          18 86 rlineto
          -55 hlineto
          2 9 rlineto
          36 7 12 12 23 hhcurveto
          10 13 -5 -4 7 hvcurveto
          endchar
        </CharString>
        <CharString name="f_f">
          75 21 72 callgsubr
          72 126 -116 126 -10 -20 hstemhm
          34 736 hintmask 11001100
          770 680 rmoveto
          hintmask 11010100
          0 callgsubr
          -3 -14 rlineto
          -153 hlineto
          2 10 rlineto
          hintmask 11100100
          8 callgsubr
          50 112 rlineto
          0 callgsubr
          -1 -5 -65 -5 71 callgsubr
          -76 -376 rlineto
          -47 callsubr
          75 376 rlineto
          153 hlineto
          -76 -376 rlineto
          -47 callsubr
          75 376 rlineto
          83 30 callgsubr
          -82 hlineto
          hintmask 11010100
          46 callgsubr
          endchar
        </CharString>
        <CharString name="f_t">
          105 -12 124 -103 -21 33 72 callgsubr
          82 126 hstemhm
          34 666 -340 164 hintmask 00111100
          564 376 rmoveto
          112 30 callgsubr
          -108 hlineto
          24 128 rlineto
          -134 hlineto
          -44 -128 rlineto
          -144 hlineto
          46 callgsubr
          50 112 rlineto
          0 callgsubr
          -3 -15 -65 -5 71 callgsubr
          -76 -376 rlineto
          -47 callsubr
          hintmask 01011010
          75 376 rlineto
          137 hlineto
          -38 -182 rlineto
          -5 -22 -3 -22 -22 vvcurveto
          -82 44 -58 106 56 42 12 10 28 vhcurveto
          hintmask 10011010
          -28 112 rlineto
          -6 -12 -12 -4 -12 hhcurveto
          -32 -16 14 30 10 0 10 2 12 hvcurveto
          endchar
        </CharString>
        <CharString name="fi">
          41 21 72 callgsubr
          64 164 -146 126 hstemhm
          474 180 hintmask 11011000
          -9 callgsubr
          50 112 rlineto
          0 callgsubr
          -2 -14 -66 -6 rlineto
          282 -494 rmoveto
          -47 callsubr
          -4 callgsubr
          hintmask 11101000
          106 64 -107 callsubr
        </CharString>
        <CharString name="figuredash">
          -59 202 102 hstem
          34 452 vstem
          34 202 rmoveto
          432 hlineto
          20 102 rlineto
          -432 hlineto
          endchar
        </CharString>
        <CharString name="five">
          -59 118 callgsubr
          308 162 vstem
          -8 1 callgsubr
        </CharString>
        <CharString name="five.dnom">
          -215 -12 114 callgsubr
          192 114 vstem
          -4 68 -77 callsubr
          endchar
        </CharString>
        <CharString name="five.numr">
          -215 258 114 callgsubr
          242 114 vstem
          46 338 -77 callsubr
          endchar
        </CharString>
        <CharString name="five.onum">
          -17 callsubr
        </CharString>
        <CharString name="five.pnum">
          -79 118 callgsubr
          298 162 vstem
          -18 1 callgsubr
        </CharString>
        <CharString name="five.subs">
          -215 -182 114 callgsubr
          152 114 vstem
          -44 -102 -77 callsubr
          endchar
        </CharString>
        <CharString name="five.sups">
          -215 428 114 callgsubr
          272 114 vstem
          76 508 -77 callsubr
          endchar
        </CharString>
        <CharString name="five.tnum">
          -17 callsubr
        </CharString>
        <CharString name="fiveeighths">
          247 -12 78 192 92 -28 80 40 78 42 98 hstemhm
          232 114 118 28 callgsubr
          hintmask 1101110110000000
          36 338 -77 callsubr
          124 -404 -44 callsubr
          hintmask 1101111010000000
          428 116 -54 callsubr
          hintmask 1011110101000000
          -57 callgsubr
          hintmask 1101111010000000
          -50 callgsubr
          hintmask 1011110101000000
          -55 callgsubr
          hintmask 1101111010000000
          -44 -22 -44 -40 -52 vvcurveto
          endchar
        </CharString>
        <CharString name="fl">
          51 9 -21 33 72 callgsubr
          82 126 -28 16 0 -20 hstemhm
          378 199 hintmask 01100110
          46 376 rmoveto
          64 hlineto
          -76 -376 rlineto
          -47 callsubr
          74 376 rlineto
          84 30 callgsubr
          -82 hlineto
          hintmask 01110010
          46 callgsubr
          hintmask 01101010
          50 112 rlineto
          hintmask 10110010
          0 callgsubr
          -2 -14 -66 -6 rlineto
          316 -328 49 callsubr
          -68 32 -42 82 36 28 6 6 18 vhcurveto
          6 118 rlineto
          -2 -8 -4 0 -6 hhcurveto
          -10 -10 6 19 5 0 4 2 10 hvcurveto
          hintmask 01100110
          108 536 -86 callgsubr
          endchar
        </CharString>
        <CharString name="fl.a">
          41 89 callsubr
          82 126 -28 16 hstemhm
          34 618 hintmask 11010000
          -9 callgsubr
          hintmask 10110000
          50 112 rlineto
          hintmask 11010000
          0 callgsubr
          -2 -14 -66 -6 rlineto
          282 -494 rmoveto
          -47 callsubr
          hintmask 10110000
          140 696 -86 callgsubr
          endchar
        </CharString>
        <CharString name="four">
          -59 118 callsubr
          8 502 vstem
          384 2 callsubr
        </CharString>
        <CharString name="four.dnom">
          -211 82 76 162 70 hstem
          -12 358 vstem
          106 158 -52 callgsubr
        </CharString>
        <CharString name="four.numr">
          -211 352 76 162 70 hstem
          38 358 vstem
          156 428 -52 callgsubr
        </CharString>
        <CharString name="four.onum">
          -10 callgsubr
        </CharString>
        <CharString name="four.pnum">
          -41 118 callsubr
          16 502 vstem
          392 2 callsubr
        </CharString>
        <CharString name="four.subs">
          -211 -88 76 162 70 hstem
          -52 358 vstem
          66 -12 -52 callgsubr
        </CharString>
        <CharString name="four.sups">
          -211 522 76 162 70 hstem
          68 358 vstem
          186 598 -52 callgsubr
        </CharString>
        <CharString name="four.tnum">
          -10 callgsubr
        </CharString>
        <CharString name="fraction">
          -481 -12 684 hstem
          -216 560 vstem
          -126 -12 -44 callsubr
          endchar
        </CharString>
        <CharString name="g">
          -49 callsubr
        </CharString>
        <CharString name="g.a">
          -34 callgsubr
          hstemhm
          -30 136 -64 130 -112 146 76 158 -120 136 hintmask 1110100101000000
          15 callsubr
          hintmask 1111001001000000
          -15 callgsubr
          hintmask 1111010010000000
          -59 callsubr
          hintmask 1111001001000000
          -83 callgsubr
          hintmask 1110100101000000
          8 -22 -22 4 -28 hhcurveto
          -118 -100 -82 -114 hvcurveto
          hintmask 1111010010000000
          -69 callgsubr
          hintmask 1110100101000000
          -53 callgsubr
          endchar
        </CharString>
        <CharString name="g.supa">
          -234 123 67 175 65 80 81 -66 74 hstemhm
          14 94 -46 89 -77 101 47 110 -85 94 hintmask 1110001010000000
          74 470 rmoveto
          -33 15 -24 23 -20 vhcurveto
          -3 vlineto
          hintmask 1110010010000000
          -28 -13 -22 -25 -28 vvcurveto
          -19 7 -16 11 -10 vhcurveto
          -3 vlineto
          hintmask 1110100100000000
          -39 -16 -27 -23 -35 vvcurveto
          -70 83 -9 49 87 99 39 82 42 -27 24 -103 13 vhcurveto
          hintmask 1110010010000000
          -46 6 -5 5 14 vvcurveto
          8 6 7 6 4 vhcurveto
          -1 6 13 -1 11 hhcurveto
          87 61 46 74 9 0 7 -2 9 hvcurveto
          43 hlineto
          15 81 rlineto
          -128 hlineto
          5 -15 -15 3 -19 hhcurveto
          hintmask 1110001010000000
          -79 -67 -54 -75 hvcurveto
          hintmask 1110100100000000
          57 -218 rmoveto
          17 -4 13 -3 9 -1 rrcurveto
          25 -3 27 -6 -18 vvcurveto
          -18 -26 -9 -39 -36 -13 10 21 13 12 9 11 9 vhcurveto
          hintmask 1101001010000000
          87 273 rmoveto
          18 11 -13 -24 -28 -16 -30 -27 -18 -11 13 24 28 16 30 27 hvcurveto
          endchar
        </CharString>
        <CharString name="g.sups">
          -209 113 86 66 89 156 90 hstem
          54 115 vstem
          314 592 rmoveto
          -16 -34 rlineto
          -4 hlineto
          24 -12 -24 18 -28 hhcurveto
          -93 -83 -98 -121 -74 35 -42 59 34 32 13 22 30 hvcurveto
          4 hlineto
          -16 -45 rlineto
          -36 -13 -26 -20 -33 hhcurveto
          -32 -32 16 17 -29 hvcurveto
          -44 -74 rlineto
          -32 44 51 -13 39 hhcurveto
          95 65 46 103 21 hvcurveto
          66 330 rlineto
          -208 -238 rmoveto
          -16 -11 12 29 68 31 47 38 11 14 -8 -16 7 hvcurveto
          -19 -103 rlineto
          -24 -16 -21 -5 -18 hhcurveto
          endchar
        </CharString>
        <CharString name="gbreve">
          94 callgsubr
          84 -6 callsubr
          16 88 hintmask 11011100
          414 500 rmoveto
          hintmask 11101100
          -101 callsubr
          hintmask 11011100
          -27 callsubr
          hintmask 11101100
          -28 callsubr
          hintmask 11011100
          -46 -26 -34 -10 -28 hhcurveto
          hintmask 11011110
          84 424 -96 callsubr
          endchar
        </CharString>
        <CharString name="gbreve.a">
          -34 callgsubr
          62 84 hstemhm
          -30 136 -64 130 -112 146 -26 88 14 158 -120 136 hintmask 1110110010010000
          15 callsubr
          hintmask 1111010101010000
          -15 callgsubr
          hintmask 1111011001100000
          -59 callsubr
          hintmask 1111010101010000
          -83 callgsubr
          hintmask 1110111001010000
          8 -22 -22 4 -28 hhcurveto
          hintmask 1110110010010000
          -118 -100 -82 -114 hvcurveto
          hintmask 1111011001100000
          -69 callgsubr
          hintmask 1110110010010000
          -53 callgsubr
          hintmask 1111011001010000
          18 170 -96 callsubr
          endchar
        </CharString>
        <CharString name="gcaron">
          94 callgsubr
          152 -6 callsubr
          hintmask 11011100
          414 500 rmoveto
          hintmask 11101100
          -101 callsubr
          hintmask 11011100
          -27 callsubr
          hintmask 11101100
          -28 callsubr
          hintmask 11011100
          -46 -26 -34 -10 -28 hhcurveto
          272 576 -86 callsubr
        </CharString>
        <CharString name="gcaron.a">
          -34 callgsubr
          62 152 -97 callsubr
          206 322 -86 callsubr
        </CharString>
        <CharString name="gcircumflex">
          94 callgsubr
          152 -6 callsubr
          hintmask 11011100
          414 500 rmoveto
          hintmask 11101100
          -101 callsubr
          hintmask 11011100
          -27 callsubr
          hintmask 11101100
          -28 callsubr
          hintmask 11011100
          -46 -26 -34 -10 -28 hhcurveto
          -70 424 -91 callsubr
          endchar
        </CharString>
        <CharString name="gcircumflex.a">
          -34 callgsubr
          62 152 -97 callsubr
          -136 170 -91 callsubr
          endchar
        </CharString>
        <CharString name="gdotaccent">
          -6 callgsubr
          84 164 -6 callsubr
          52 180 hintmask 11011110
          414 500 rmoveto
          hintmask 11101110
          -101 callsubr
          hintmask 11011110
          -27 callsubr
          hintmask 11101110
          -28 callsubr
          hintmask 11011110
          -46 -26 -34 -10 -28 hhcurveto
          92 414 -107 callsubr
        </CharString>
        <CharString name="gdotaccent.a">
          -34 callgsubr
          52 164 hstemhm
          -30 136 -64 130 -112 146 10 180 -114 158 -120 136 hintmask 1110110010010000
          60 -63 callgsubr
          26 160 -107 callsubr
        </CharString>
        <CharString name="germandbls">
          51 -12 118 -85 -21 582 126 hstemhm
          304 156 -48 154 -132 148 hintmask 01101000
          -51 callsubr
          94 468 rlineto
          63 14 32 51 50 hhcurveto
          38 16 -20 -34 hvcurveto
          hintmask 01110000
          -80 -108 -24 -86 vvcurveto
          hintmask 10100100
          -102 130 -26 -56 vvcurveto
          -28 -18 -20 -30 -32 -28 14 16 -24 vhcurveto
          -64 -106 rlineto
          -30 46 52 -12 52 hhcurveto
          108 86 80 102 hvcurveto
          hintmask 01110000
          114 -122 32 50 vvcurveto
          hintmask 01101000
          52 106 26 108 vvcurveto
          110 -102 46 -100 -144 -88 -90 -120 -24 vhcurveto
          endchar
        </CharString>
        <CharString name="grave">
          -39 53 callgsubr
          210 202 vstem
          302 574 -32 callgsubr
        </CharString>
        <CharString name="greater">
          -59 98 466 hstemhm
          48 450 -162 162 hintmask 11000000
          48 98 rmoveto
          hintmask 10100000
          450 178 rlineto
          110 vlineto
          -450 178 rlineto
          -130 vlineto
          158 -54 130 -46 rlineto
          -4 vlineto
          -130 -46 -158 -54 rlineto
          endchar
        </CharString>
        <CharString name="greaterequal">
          -59 0 112 hstemhm
          48 450 -160 160 hintmask 11000000
          496 hmoveto
          50 callgsubr
          152 vmoveto
          hintmask 10100000
          450 142 rlineto
          130 vlineto
          -450 140 rlineto
          -130 vlineto
          156 -42 134 -32 rlineto
          -4 vlineto
          -134 -32 -156 -40 rlineto
          endchar
        </CharString>
        <CharString name="guillemotleft">
          -99 54 394 hstem
          40 420 57 callsubr
          304 -146 73 callgsubr
          endchar
        </CharString>
        <CharString name="guillemotright">
          -99 54 394 hstem
          28 420 vstem
          144 448 29 callsubr
          96 146 29 callsubr
          endchar
        </CharString>
        <CharString name="guilsinglleft">
          -299 54 394 hstem
          40 220 57 callsubr
          endchar
        </CharString>
        <CharString name="guilsinglright">
          -299 54 394 hstem
          28 220 vstem
          144 448 29 callsubr
          endchar
        </CharString>
        <CharString name="h">
          -23 21 58 callsubr
          hstemhm
          8 516 -164 164 hintmask 10111000
          -51 callsubr
          hintmask 11011000
          110 callgsubr
          hintmask 11010100
          -88 callgsubr
          6 24 2 51 callgsubr
          -60 -52 -30 -36 -40 vhcurveto
          -4 hlineto
          24 88 34 162 -86 callgsubr
          endchar
        </CharString>
        <CharString name="h.sups">
          -204 260 460 -214 94 hstemhm
          38 351 -116 116 hintmask 10100000
          79 callgsubr
          hintmask 01010000
          121 callsubr
          10 -9 -18 -7 -2 -8 -3 -13 hvcurveto
          -38 -191 65 callsubr
          41 205 rlineto
          3 14 3 17 15 vvcurveto
          57 -26 32 -55 -40 -35 -21 -23 -26 vhcurveto
          -3 hlineto
          19 68 19 96 89 callgsubr
          endchar
        </CharString>
        <CharString name="hbar">
          -23 21 -21 356 136 60 73 -73 76 -76 144 hstemhm
          8 512 -164 164 hintmask 11001100
          246 426 rmoveto
          24 88 8 38 rlineto
          156 hlineto
          hintmask 11010100
          16 76 67 callgsubr
          hintmask 11001100
          14 68 -86 callgsubr
          hintmask 11100100
          -14 -68 -68 -6 rlineto
          hintmask 11001100
          -14 -70 rlineto
          67 hlineto
          -111 -552 rlineto
          -47 callsubr
          58 300 rlineto
          hintmask 11001010
          38 36 24 18 28 hhcurveto
          26 16 -14 -28 -12 -4 -14 -4 -18 hvcurveto
          -54 -270 rlineto
          -47 callsubr
          58 290 rlineto
          6 24 2 51 callgsubr
          vhcurveto
          hintmask 11001100
          -60 -52 -30 -36 -40 hvcurveto
          endchar
        </CharString>
        <CharString name="hcircumflex">
          -23 21 58 callsubr
          80 122 hstemhm
          8 516 -164 164 hintmask 10111100
          -51 callsubr
          hintmask 11011100
          110 callgsubr
          hintmask 11011010
          -88 callgsubr
          6 24 2 51 callgsubr
          -60 -52 -30 -36 -40 vhcurveto
          -4 hlineto
          24 88 34 162 -86 callgsubr
          -83 60 -85 callgsubr
          endchar
        </CharString>
        <CharString name="hungarumlaut">
          -39 53 callgsubr
          200 398 vstem
          200 574 -7 callgsubr
        </CharString>
        <CharString name="hyphen">
          -251 198 112 hstem
          32 264 vstem
          32 94 callsubr
        </CharString>
        <CharString name="i">
          50 callsubr
          84 164 hstem
          130 180 vstem
          -38 callsubr
          106 64 -107 callsubr
        </CharString>
        <CharString name="i.sups">
          -393 632 110 hstem
          118 124 vstem
          79 callgsubr
          66 332 89 callgsubr
          72 40 73 callsubr
        </CharString>
        <CharString name="iacute">
          -303 21 21 callsubr
          hstem
          8 374 vstem
          -38 callsubr
          74 vmoveto
          120 hlineto
          154 152 rlineto
          -158 hlineto
          endchar
        </CharString>
        <CharString name="icircumflex">
          -303 21 21 callsubr
          hstem
          8 344 vstem
          -38 callsubr
          -66 74 -91 callsubr
          endchar
        </CharString>
        <CharString name="idieresis">
          50 callsubr
          86 148 hstem
          34 100 callsubr
          vstem
          -38 callsubr
          -8 66 -95 callgsubr
        </CharString>
        <CharString name="igrave">
          -303 21 21 callsubr
          hstem
          8 268 vstem
          -38 callsubr
          58 74 -32 callgsubr
        </CharString>
        <CharString name="imacron">
          50 callsubr
          110 100 hstem
          8 348 vstem
          -38 callsubr
          -46 90 -82 callsubr
          endchar
        </CharString>
        <CharString name="infinity">
          213 106 146 -120 116 134 146 -100 116 hstemhm
          48 116 490 116 hintmask 01011100
          218 132 rmoveto
          64 54 46 44 32 hvcurveto
          4 hlineto
          hintmask 10011100
          -84 60 60 -32 80 hhcurveto
          108 90 94 130 132 -88 82 -110 -72 -54 -38 -68 -48 hvcurveto
          -4 hlineto
          hintmask 01101100
          48 -36 -52 42 -80 hhcurveto
          -110 -68 -90 -112 hvcurveto
          hintmask 01011100
          -108 64 -86 106 vhcurveto
          hintmask 10011100
          228 218 rmoveto
          52 36 44 26 40 hhcurveto
          52 36 -32 -52 -50 -32 -42 -50 -54 -36 46 52 -36 hvcurveto
          hintmask 01101100
          -216 -102 rmoveto
          -44 -22 34 34 36 18 30 44 34 36 -32 -40 24 hvcurveto
          -38 -24 -30 -24 -36 hhcurveto
          endchar
        </CharString>
        <CharString name="integral">
          -185 -158 118 712 120 hstem
          -34 506 vstem
          -2 -36 rmoveto
          -32 -114 rlineto
          -6 14 22 -2 22 hhcurveto
          156 53 106 144 27 hvcurveto
          32 168 -8 130 30 154 rrcurveto
          92 18 20 36 48 hhcurveto
          18 14 -2 -2 10 hvcurveto
          30 116 rlineto
          4 -14 -26 4 -26 hhcurveto
          -156 -53 -108 -144 -27 hvcurveto
          -32 -168 10 -128 -32 -156 rrcurveto
          -94 -18 -18 -34 -48 hhcurveto
          -14 -12 2 2 -8 hvcurveto
          endchar
        </CharString>
        <CharString name="iogonek">
          -303 -212 94 139 36 callgsubr
          84 164 hstem
          -38 114 54 180 vstem
          8 hmoveto
          46 hlineto
          -28 -18 -64 -52 -66 vvcurveto
          -62 callgsubr
          34 24 34 68 22 hvcurveto
          -4 callgsubr
          106 64 -107 callsubr
        </CharString>
        <CharString name="iogonek.d">
          -303 -212 94 139 36 callgsubr
          hstem
          -38 114 vstem
          8 hmoveto
          46 hlineto
          -28 -18 -64 -52 -66 vvcurveto
          -62 callgsubr
          34 24 34 68 22 hvcurveto
          -4 callgsubr
          endchar
        </CharString>
        <CharString name="itilde">
          50 callsubr
          94 117 callgsubr
          8 392 hintmask 11011000
          -38 callsubr
          10 76 17 callsubr
          hintmask 11101000
          -66 callgsubr
          hintmask 11011000
          -41 callsubr
          endchar
        </CharString>
        <CharString name="j">
          96 callsubr
          84 164 hstem
          132 180 -12 callsubr
          46 562 -107 callsubr
        </CharString>
        <CharString name="j.sups">
          -392 128 86 418 110 hstem
          118 124 vstem
          216 592 rmoveto
          -112 hlineto
          -66 -332 rlineto
          -35 -7 -6 -11 -21 hhcurveto
          -9 -9 2 4 -10 hvcurveto
          -33 -77 rlineto
          -12 25 22 -3 24 hhcurveto
          82 38 53 69 14 hvcurveto
          28 382 73 callsubr
        </CharString>
        <CharString name="jcircumflex">
          96 callsubr
          94 152 hstem
          -134 486 -12 callsubr
          -128 572 -91 callsubr
          endchar
        </CharString>
        <CharString name="k">
          -35 80 callgsubr
          216 -20 hstem
          8 568 -35 callsubr
          76 376 -86 callgsubr
          endchar
        </CharString>
        <CharString name="k.sups">
          -212 260 460 hstem
          38 384 vstem
          79 callgsubr
          16 80 42 40 45 -120 rlineto
          111 hlineto
          -81 183 139 149 rlineto
          -122 hlineto
          -104 -118 rlineto
          -4 hlineto
          50 246 89 callgsubr
          endchar
        </CharString>
        <CharString name="kgreenlandic">
          -35 80 callgsubr
          hstem
          8 568 -35 callsubr
          34 180 -86 callgsubr
          endchar
        </CharString>
        <CharString name="l">
          -293 9 86 callsubr
          hintmask 01110000
          27 callsubr
          hintmask 10110000
          -80 callgsubr
          endchar
        </CharString>
        <CharString name="l.a">
          -303 21 -21 696 -20 hstem
          8 300 vstem
          -10 callsubr
          endchar
        </CharString>
        <CharString name="l.supa">
          -393 260 460 hstem
          38 204 vstem
          79 callgsubr
          92 460 89 callgsubr
          endchar
        </CharString>
        <CharString name="l.sups">
          -393 252 87 -87 468 hstemhm
          56 136 hintmask 01100000
          61 373 rmoveto
          hintmask 10100000
          -4 -19 -1 -13 -14 vvcurveto
          -46 22 -29 57 24 20 4 4 12 vhcurveto
          2 81 rlineto
          -2 -5 -1 0 -4 hhcurveto
          -7 -7 2 14 3 1 6 1 3 hvcurveto
          71 353 89 callgsubr
          endchar
        </CharString>
        <CharString name="lacute">
          -293 9 60 callgsubr
          80 122 hstemhm
          34 199 hintmask 01111000
          27 callsubr
          hintmask 10111000
          -80 callgsubr
          11 60 -58 callsubr
        </CharString>
        <CharString name="lacute.a">
          -303 21 -21 696 -20 80 122 hstem
          8 423 vstem
          -10 callsubr
          11 60 -58 callsubr
        </CharString>
        <CharString name="lcaron">
          -283 9 -21 33 -21 548 148 hstemhm
          34 199 hintmask 01110000
          27 callsubr
          hintmask 10110000
          -80 callgsubr
          232 -148 15 callgsubr
        </CharString>
        <CharString name="lcaron.a">
          -283 21 -21 548 148 hstem
          8 444 vstem
          -10 callsubr
          232 -148 15 callgsubr
        </CharString>
        <CharString name="ldot">
          -123 9 86 callsubr
          55 190 hintmask 01111000
          27 callsubr
          hintmask 10111000
          -80 callgsubr
          220 -458 -40 callsubr
          endchar
        </CharString>
        <CharString name="ldot.a">
          -123 21 -21 696 -20 hstemhm
          8 470 -190 190 hintmask 11100000
          -10 callsubr
          hintmask 11010000
          220 -458 -40 callsubr
          endchar
        </CharString>
        <CharString name="less">
          -59 98 466 hstem
          46 162 vstem
          46 276 rmoveto
          450 -178 rlineto
          132 vlineto
          -158 54 -130 46 rlineto
          4 vlineto
          130 46 158 54 rlineto
          130 vlineto
          -450 -178 rlineto
          endchar
        </CharString>
        <CharString name="lessequal">
          -59 0 112 hstemhm
          46 162 -162 450 hintmask 10100000
          496 hmoveto
          50 callgsubr
          hintmask 11000000
          -2 294 rmoveto
          450 -142 rlineto
          132 vlineto
          -154 40 -134 32 rlineto
          4 vlineto
          134 32 154 42 rlineto
          130 vlineto
          -450 -140 rlineto
          endchar
        </CharString>
        <CharString name="lira">
          -59 0 134 80 80 48 80 106 128 hstemhm
          -4 556 -400 144 hintmask 11101000
          242 138 rmoveto
          20 26 13 24 9 26 rrcurveto
          110 hlineto
          16 80 rlineto
          hintmask 11110100
          -114 hlineto
          4 0 4 4 vvcurveto
          11 -1 12 -1 13 vhcurveto
          128 hlineto
          16 80 rlineto
          -147 hlineto
          75 8 38 31 43 hhcurveto
          30 18 -14 -28 22 hvcurveto
          102 84 rlineto
          54 -40 -52 32 -72 hhcurveto
          -135 -110 -95 -140 -1 hvcurveto
          -58 -5 -16 -74 rlineto
          80 hlineto
          2 -17 2 -16 -15 vvcurveto
          -22 hlineto
          -72 -6 -16 -74 rlineto
          96 hlineto
          -21 -52 -44 -40 -57 -24 -20 -98 rcurveline
          446 hlineto
          24 -45 callsubr
          hintmask 11101000
          -226 hlineto
          endchar
        </CharString>
        <CharString name="logicalnot">
          -59 274 112 hstem
          382 114 vstem
          48 274 rmoveto
          334 -182 114 294 -448 hlineto
          endchar
        </CharString>
        <CharString name="lozenge">
          -41 -10 132 416 132 hstem
          64 438 vstem
          220 -10 81 callsubr
          156 340 -156 340 -18 callsubr
          -156 -340 rlineto
          217 -208 rmoveto
          -49 119 -39 89 39 89 49 119 rlineto
          4 hlineto
          49 -119 38 -89 -38 -89 -49 -119 rlineto
          endchar
        </CharString>
        <CharString name="lslash">
          -281 9 97 callgsubr
          46 199 hintmask 01110000
          250 348 rmoveto
          70 40 24 126 -69 -39 45 103 callsubr
          67 36 -21 -104 rlineto
          42 callsubr
          hintmask 10110000
          -68 32 -42 82 36 28 6 6 18 vhcurveto
          6 118 rlineto
          -2 -8 -4 0 -6 hhcurveto
          -10 -10 6 19 5 0 4 2 10 hvcurveto
          endchar
        </CharString>
        <CharString name="lslash.a">
          -281 21 -21 696 -20 hstem
          8 336 vstem
          344 514 rmoveto
          -68 -39 44 103 callsubr
          66 36 -54 -270 rlineto
          -47 callsubr
          70 348 70 40 rlineto
          endchar
        </CharString>
        <CharString name="m">
          259 21 -21 376 136 -12 -20 32 -20 hstemhm
          8 792 -164 164 hintmask 10011000
          -51 callsubr
          hintmask 11001000
          37 callgsubr
          hintmask 11000100
          6 callgsubr
          hintmask 10101000
          108 callsubr
          endchar
        </CharString>
        <CharString name="m.sups">
          -19 506 86 hstem
          455 116 vstem
          39 260 rmoveto
          111 hlineto
          41 210 rlineto
          24 21 21 12 11 hhcurveto
          19 7 -11 -17 -9 -3 -9 -2 -10 hvcurveto
          -37 -190 rlineto
          109 hlineto
          41 210 rlineto
          25 22 21 11 12 hhcurveto
          18 4 -10 -15 -11 -1 -10 -2 -10 hvcurveto
          -37 -190 rlineto
          110 hlineto
          41 203 rlineto
          3 15 2 19 13 vvcurveto
          59 -22 31 -55 -44 -37 -29 -28 -31 vhcurveto
          35 -11 -21 22 -42 hhcurveto
          -45 -35 -24 -28 -30 hvcurveto
          -4 44 -90 hlineto
          endchar
        </CharString>
        <CharString name="macron">
          -39 590 100 hstem
          198 294 vstem
          198 590 -82 callsubr
          endchar
        </CharString>
        <CharString name="minus">
          -59 274 95 callgsubr
          274 rmoveto
          50 callgsubr
          endchar
        </CharString>
        <CharString name="multiply">
          -59 114 432 hstem
          62 420 vstem
          272 252 rmoveto
          132 -138 78 78 -132 138 132 138 -78 78 -132 -138 -132 138 -78 -78 132 -138 -132 -138 78 -78 rlineto
          endchar
        </CharString>
        <CharString name="n">
          -17 21 26 callgsubr
          hstemhm
          8 516 -164 164 hintmask 10011000
          -51 callsubr
          hintmask 11001000
          110 callgsubr
          hintmask 11000100
          -88 callgsubr
          5 24 3 26 22 vvcurveto
          hintmask 10010100
          -5 callsubr
          hintmask 10101000
          108 callsubr
          endchar
        </CharString>
        <CharString name="n.sups">
          -203 506 86 hstemhm
          38 351 -117 117 hintmask 11000000
          79 callgsubr
          hintmask 10100000
          121 callsubr
          9 -9 -18 -7 -1 -9 -3 -12 hvcurveto
          -38 -191 65 callsubr
          41 205 rlineto
          2 14 4 17 15 vvcurveto
          57 -26 32 -55 -43 -37 -24 -28 -30 vhcurveto
          -4 44 -90 hlineto
          endchar
        </CharString>
        <CharString name="nacute">
          -17 21 26 callgsubr
          82 152 hstemhm
          8 542 -190 -2 callsubr
          170 74 -58 callgsubr
        </CharString>
        <CharString name="napostrophe">
          275 21 26 callgsubr
          42 162 0 -20 hstemhm
          142 176 338 164 hintmask 10010111
          130 348 rmoveto
          100 28 88 82 130 vvcurveto
          68 -32 40 -50 -58 -36 -44 -48 vhcurveto
          hintmask 10011011
          -44 34 -26 46 vhcurveto
          2 2 0 2 hhcurveto
          -2 -30 -42 -61 -78 -27 rrcurveto
          hintmask 10010111
          426 20 rmoveto
          hintmask 10100111
          108 callsubr
          -98 -500 rlineto
          -47 callsubr
          hintmask 11000111
          110 callgsubr
          -88 callgsubr
          5 24 3 26 22 vvcurveto
          hintmask 10010111
          86 -36 44 -82 -64 -56 -36 -40 -46 vhcurveto
          endchar
        </CharString>
        <CharString name="nbspace.frac">
          -439 endchar
        </CharString>
        <CharString name="ncaron">
          -17 21 26 callgsubr
          82 152 hstemhm
          8 544 -192 -2 callsubr
          446 226 -86 callsubr
        </CharString>
        <CharString name="nine">
          -36 callgsubr
        </CharString>
        <CharString name="nine.dnom">
          -213 -12 115 callgsubr
          34 104 82 108 vstem
          172 220 -74 callgsubr
        </CharString>
        <CharString name="nine.numr">
          -213 258 115 callgsubr
          84 104 82 108 vstem
          222 490 -74 callgsubr
        </CharString>
        <CharString name="nine.onum">
          -39 callgsubr
        </CharString>
        <CharString name="nine.pnum">
          -36 callgsubr
        </CharString>
        <CharString name="nine.subs">
          -213 -182 115 callgsubr
          -6 104 82 108 vstem
          132 50 -74 callgsubr
        </CharString>
        <CharString name="nine.sups">
          -213 428 115 callgsubr
          114 104 82 108 vstem
          252 660 -74 callgsubr
        </CharString>
        <CharString name="nine.tnum">
          -39 callgsubr
        </CharString>
        <CharString name="notequal">
          -59 154 112 128 95 callgsubr
          154 rmoveto
          112 -210 vlineto
          72 128 rlineto
          138 112 -80 hlineto
          70 120 rlineto
          -100 hlineto
          -70 -120 rlineto
          -268 -112 210 hlineto
          -72 -128 rlineto
          -138 -112 80 hlineto
          -70 -120 rlineto
          100 hlineto
          70 120 rlineto
          endchar
        </CharString>
        <CharString name="ntilde">
          -17 21 26 callgsubr
          82 117 callgsubr
          8 560 -208 164 hintmask 10010110
          -51 callsubr
          hintmask 11000110
          110 callgsubr
          hintmask 11000101
          -88 callgsubr
          5 24 3 26 22 vvcurveto
          hintmask 10010101
          -5 callsubr
          hintmask 10100110
          108 callsubr
          180 76 17 callsubr
          hintmask 10011010
          -66 callgsubr
          hintmask 10010110
          -41 callsubr
          endchar
        </CharString>
        <CharString name="numbersign">
          -63 21 -21 182 102 102 102 hstem
          16 518 vstem
          32 hmoveto
          92 hlineto
          58 182 rlineto
          90 hlineto
          -58 -182 rlineto
          92 hlineto
          58 182 rlineto
          82 hlineto
          24 102 rlineto
          -74 hlineto
          32 102 rlineto
          82 hlineto
          24 102 rlineto
          -74 hlineto
          52 162 rlineto
          -92 hlineto
          -52 -162 rlineto
          -90 hlineto
          52 162 rlineto
          -92 hlineto
          -52 -162 rlineto
          -82 hlineto
          -24 -102 rlineto
          74 hlineto
          -32 -102 rlineto
          -82 hlineto
          -24 -102 rlineto
          74 hlineto
          124 102 rmoveto
          32 102 rlineto
          90 hlineto
          -32 -102 rlineto
          endchar
        </CharString>
        <CharString name="o">
          62 callsubr
          hstem
          32 callsubr
          vstem
          -105 callsubr
          endchar
        </CharString>
        <CharString name="o.sups">
          2 callgsubr
        </CharString>
        <CharString name="oacute">
          -39 132 callgsubr
          hstem
          32 callsubr
          vstem
          -105 callsubr
          -48 190 -58 callgsubr
        </CharString>
        <CharString name="ocircumflex">
          -39 132 callgsubr
          hstem
          32 callsubr
          vstem
          -105 callsubr
          -114 190 -91 callsubr
          endchar
        </CharString>
        <CharString name="odieresis">
          62 callsubr
          54 148 hstemhm
          26 162 -18 150 28 162 -140 150 hintmask 11110100
          -105 callsubr
          hintmask 11101010
          -56 182 -95 callgsubr
        </CharString>
        <CharString name="oe">
          213 -12 120 -120 128 86 96 86 128 -122 122 hstemhm
          26 162 150 138 158 130 hintmask 01110111
          216 -12 rmoveto
          60 62 30 56 48 hvcurveto
          -56 30 50 -30 58 hhcurveto
          82 64 24 28 40 hvcurveto
          hintmask 10110111
          -56 100 rlineto
          -16 -22 -34 -16 -28 hhcurveto
          -52 -40 28 66 -2 hvcurveto
          260 hlineto
          8 14 20 56 50 vvcurveto
          104 -44 86 -122 -54 -60 -30 -54 -46 vhcurveto
          54 -30 -38 30 -70 hhcurveto
          -130 -144 -122 -194 hvcurveto
          hintmask 01110111
          -124 76 -84 114 vhcurveto
          66 396 rmoveto
          38 18 -32 -50 -108 -42 -78 -52 -38 -18 32 50 108 46 78 48 hvcurveto
          206 -86 rmoveto
          hintmask 01101111
          64 20 36 28 34 -60 callsubr
          endchar
        </CharString>
        <CharString name="ogonek">
          -39 -212 214 hstem
          96 114 vstem
          96 -136 rmoveto
          -62 callgsubr
          28 18 28 48 36 hvcurveto
          -86 hlineto
          -30 -20 -64 -52 -66 vvcurveto
          endchar
        </CharString>
        <CharString name="ograve">
          -39 132 callgsubr
          hstem
          32 callsubr
          vstem
          -105 callsubr
          10 190 -32 callgsubr
        </CharString>
        <CharString name="ohorn">
          -33 -42 callsubr
          21 callgsubr
          -36 124 hintmask 11110000
          244 116 -24 callsubr
          hintmask 11101000
          -65 callgsubr
          hintmask 11110000
          5 callgsubr
          hintmask 11101000
          90 22 38 51 59 -55 callsubr
        </CharString>
        <CharString name="ohungarumlaut">
          -39 132 callgsubr
          hstem
          32 callsubr
          vstem
          -105 callsubr
          -92 190 -7 callgsubr
        </CharString>
        <CharString name="omacron">
          62 callsubr
          78 100 hstem
          32 callsubr
          vstem
          -105 callsubr
          -94 206 -82 callsubr
          endchar
        </CharString>
        <CharString name="one">
          -59 0 128 346 76 callgsubr
          102 506 23 callgsubr
          -70 -346 rlineto
          -128 hlineto
          endchar
        </CharString>
        <CharString name="one.dnom">
          -195 274 116 hstem
          86 224 vstem
          116 hmoveto
          -46 callsubr
          endchar
        </CharString>
        <CharString name="one.numr">
          -195 544 116 hstem
          136 224 vstem
          166 270 61 callgsubr
        </CharString>
        <CharString name="one.onum">
          -191 21 -21 420 160 hstem
          56 308 vstem
          88 -44 callgsubr
          116 580 23 callgsubr
          endchar
        </CharString>
        <CharString name="one.pnum">
          -187 21 -21 474 160 hstem
          60 308 vstem
          240 hmoveto
          128 634 23 callgsubr
          -96 -474 rlineto
          endchar
        </CharString>
        <CharString name="one.subs">
          -195 104 116 hstem
          46 224 vstem
          76 -170 61 callgsubr
        </CharString>
        <CharString name="one.sups">
          -195 714 116 hstem
          166 224 vstem
          196 440 61 callgsubr
        </CharString>
        <CharString name="one.tnum">
          -59 0 128 292 76 callgsubr
          90 452 23 callgsubr
          -58 -292 rlineto
          -128 hlineto
          endchar
        </CharString>
        <CharString name="oneeighth">
          247 -12 78 256 80 142 116 hstemhm
          464 28 callgsubr
          hintmask 11101100
          126 270 rmoveto
          -46 callsubr
          32 -556 -44 callsubr
          hintmask 11110100
          448 116 -54 callsubr
          hintmask 11101010
          -57 callgsubr
          hintmask 11110100
          -50 callgsubr
          hintmask 11101010
          -55 callgsubr
          hintmask 11110100
          -44 -22 -44 -40 -52 vvcurveto
          endchar
        </CharString>
        <CharString name="onehalf">
          249 0 98 -89 -21 314 100 142 116 hstemhm
          664 116 hintmask 10011000
          126 270 rmoveto
          -46 callsubr
          hintmask 01011000
          22 -556 -44 callsubr
          hintmask 10111000
          338 12 rmoveto
          -74 callsubr
          endchar
        </CharString>
        <CharString name="onequarter">
          209 0 158 -149 -21 94 76 162 70 154 116 hstemhm
          100 666 hintmask 10011100
          130 270 rmoveto
          -46 callsubr
          408 128 rmoveto
          hintmask 01011100
          -470 -684 rlineto
          90 hlineto
          470 684 rlineto
          hintmask 10011100
          -158 -514 rmoveto
          58 76 58 86 rlineto
          4 hlineto
          -28 -124 -8 -38 rlineto
          156 hmoveto
          -57 hlineto
          45 232 rlineto
          -146 hlineto
          hintmask 00111100
          -188 -248 -12 -60 rlineto
          187 hlineto
          hintmask 10011100
          -17 -82 rlineto
          100 hlineto
          hintmask 00111100
          16 82 rlineto
          56 hlineto
          endchar
        </CharString>
        <CharString name="onethird">
          245 -12 125 callgsubr
          142 116 hstemhm
          652 88 callgsubr
          hintmask 11111000
          126 270 rmoveto
          -46 callsubr
          22 -556 -44 callsubr
          342 80 rmoveto
          -30 callgsubr
          hintmask 11110100
          54 22 22 34 50 vvcurveto
          58 -52 40 -73 -49 -38 -8 -28 -48 vhcurveto
          48 -76 rlineto
          18 26 12 4 22 hhcurveto
          22 14 -12 -17 -25 -13 -25 -69 hvcurveto
          hintmask 11111000
          -9 callsubr
        </CharString>
        <CharString name="ordfeminine">
          -12 callgsubr
        </CharString>
        <CharString name="ordfeminine.a">
          129 callsubr
          11 108 90 111 vstem
          11 -20 callsubr
        </CharString>
        <CharString name="ordmasculine">
          2 callgsubr
        </CharString>
        <CharString name="oslash">
          -39 -12 124 276 124 hstem
          26 150 184 150 vstem
          360 295 rmoveto
          -81 -1 -35 -102 -86 hhcurveto
          -17 -14 6 10 -9 hvcurveto
          -22 73 rmoveto
          82 1 37 105 84 hhcurveto
          17 14 -7 -12 10 hvcurveto
          201 111 rmoveto
          -50 44 -52 -54 rlineto
          28 -35 -44 14 -49 hhcurveto
          -138 -146 -122 -194 -47 11 -39 19 -32 hvcurveto
          -56 -58 48 -46 53 54 rlineto
          -26 34 43 -14 48 hhcurveto
          138 146 120 196 45 -10 39 -19 32 hvcurveto
          endchar
        </CharString>
        <CharString name="otilde">
          -39 -11 callsubr
          98 -56 98 21 callgsubr
          hintmask 11011100
          -105 callsubr
          -38 192 17 callsubr
          hintmask 11101100
          -66 callgsubr
          hintmask 11011100
          -41 callsubr
          endchar
        </CharString>
        <CharString name="p">
          132 callsubr
          118 127 callsubr
          hstemhm
          364 166 hintmask 11001100
          168 42 rmoveto
          2 hlineto
          -34 20 36 -20 38 hhcurveto
          138 128 150 190 118 -52 66 -88 -48 -54 -26 -40 -44 hvcurveto
          -2 hlineto
          hintmask 11010100
          -4 54 rlineto
          -130 hlineto
          -136 -676 rlineto
          160 30 callgsubr
          hintmask 11100100
          162 434 44 callsubr
        </CharString>
        <CharString name="p.sups">
          -206 252 89 169 82 hstem
          276 114 vstem
          144 294 rmoveto
          4 hlineto
          -25 12 25 -17 27 119 callgsubr
          -32 -16 -28 -30 hvcurveto
          -4 hlineto
          -4 36 rlineto
          -90 hlineto
          -92 -464 65 callsubr
          19 97 rlineto
          105 285 rmoveto
          16 12 -14 -32 -72 -39 -51 -36 -12 -11 9 104 callsubr
        </CharString>
        <CharString name="paragraph">
          57 650 -20 hstem
          68 556 vstem
          320 -80 rmoveto
          -47 callsubr
          144 730 -86 callgsubr
          -182 -460 rmoveto
          36 hlineto
          92 460 rlineto
          -42 hlineto
          -158 -142 -80 -194 -120 100 -66 114 hvcurveto
          endchar
        </CharString>
        <CharString name="parenleft">
          -235 -180 914 hstem
          52 128 vstem
          112 -180 rmoveto
          102 42 rlineto
          -24 70 -10 106 82 vvcurveto
          188 60 190 140 190 vhcurveto
          -92 46 rlineto
          -154 -194 -82 -178 -232 vvcurveto
          -108 30 -118 30 -84 vhcurveto
          endchar
        </CharString>
        <CharString name="parenleft.dnom">
          -313 -92 574 hstem
          38 110 vstem
          194 482 -29 callsubr
        </CharString>
        <CharString name="parenleft.numr">
          -313 178 574 hstem
          88 110 vstem
          244 752 -29 callsubr
        </CharString>
        <CharString name="parenleft.subs">
          -313 -262 574 hstem
          -2 110 vstem
          154 312 -29 callsubr
        </CharString>
        <CharString name="parenleft.sups">
          -313 348 574 hstem
          118 110 vstem
          274 922 -29 callsubr
        </CharString>
        <CharString name="parenright">
          -233 -180 914 hstem
          172 128 vstem
          240 734 rmoveto
          -102 -42 rlineto
          24 -70 10 -106 -82 vvcurveto
          -188 -60 -190 -140 -190 vhcurveto
          92 -46 rlineto
          154 194 82 178 232 vvcurveto
          108 -30 118 -30 84 vhcurveto
          endchar
        </CharString>
        <CharString name="parenright.dnom">
          -315 -92 574 hstem
          94 110 vstem
          48 -92 -29 callgsubr
        </CharString>
        <CharString name="parenright.numr">
          -315 178 574 hstem
          144 110 vstem
          98 178 -29 callgsubr
        </CharString>
        <CharString name="parenright.subs">
          -315 -262 574 hstem
          54 110 vstem
          8 -262 -29 callgsubr
        </CharString>
        <CharString name="parenright.sups">
          -315 348 574 hstem
          174 110 vstem
          128 348 -29 callgsubr
        </CharString>
        <CharString name="partialdiff">
          1 -10 128 180 123 123 126 hstem
          31 147 220 152 vstem
          233 118 rmoveto
          -38 -17 30 28 56 35 66 59 45 24 -33 -32 12 hvcurveto
          -65 -29 -42 -50 -49 hhcurveto
          4 399 rmoveto
          15 21 30 12 28 hhcurveto
          56 26 -44 -63 -27 -3 -30 -6 -32 hvcurveto
          48 -27 -43 25 -53 hhcurveto
          -142 -93 -141 -123 -105 84 -62 92 211 132 248 209 139 -78 84 -133 -61 -54 -22 -35 -52 hvcurveto
          endchar
        </CharString>
        <CharString name="percent">
          265 54 callsubr
          hintmask 11011111
          194 258 -83 callsubr
          -2 -592 -44 callsubr
          470 hmoveto
          116 80 108 146 hvcurveto
          hintmask 10111111
          100 -66 62 -78 -116 -80 -108 -146 vhcurveto
          hintmask 11011111
          -100 66 -62 78 vhcurveto
          hintmask 10111111
          42 322 rmoveto
          28 14 -26 -44 -98 -34 -60 -40 -28 -14 26 44 98 34 60 40 hvcurveto
          endchar
        </CharString>
        <CharString name="period">
          -269 -12 196 hstem
          24 190 vstem
          104 -12 -40 callsubr
          endchar
        </CharString>
        <CharString name="period.dnom">
          -369 -8 134 hstem
          -2 132 vstem
          54 -8 11 callgsubr
        </CharString>
        <CharString name="period.numr">
          -369 262 134 hstem
          48 132 vstem
          104 262 11 callgsubr
        </CharString>
        <CharString name="period.subs">
          -369 -178 134 hstem
          -42 132 vstem
          14 -178 11 callgsubr
        </CharString>
        <CharString name="period.sups">
          -369 432 134 hstem
          78 132 vstem
          134 432 11 callgsubr
        </CharString>
        <CharString name="periodcentered">
          -269 228 196 hstem
          74 190 vstem
          154 228 -40 callsubr
          endchar
        </CharString>
        <CharString name="perthousand">
          645 54 callsubr
          40 52 callgsubr
          hintmask 1011111111000000
          234 -12 -44 callsubr
          hintmask 1101111100000000
          50 270 -83 callsubr
          378 -592 rmoveto
          116 80 108 146 hvcurveto
          hintmask 0010001100000000
          100 -66 62 -78 -116 -80 -108 -146 vhcurveto
          hintmask 1101111100000000
          -100 66 -62 78 vhcurveto
          hintmask 1010001111000000
          42 322 rmoveto
          28 14 -26 -44 -98 -34 -60 -40 -28 -14 26 44 98 34 60 40 hvcurveto
          338 -322 -83 callsubr
          endchar
        </CharString>
        <CharString name="peseta">
          -59 21 -21 218 98 66 98 64 100 hstem
          6 546 vstem
          220 316 rmoveto
          13 66 rlineto
          102 hlineto
          -41 -18 -32 -25 -43 hhcurveto
          46 228 rmoveto
          36 22 -21 -43 3 hvcurveto
          -96 hlineto
          13 64 rlineto
          286 -64 rmoveto
          -54 hlineto
          119 -1 -80 45 -103 hhcurveto
          -178 hlineto
          -33 -165 -59 -5 -18 -92 rlineto
          57 hlineto
          -77 -382 rlineto
          150 hlineto
          44 218 rlineto
          30 hlineto
          107 108 51 113 38 hvcurveto
          51 hlineto
          endchar
        </CharString>
        <CharString name="pi">
          19 -12 124 260 126 hstem
          326 200 vstem
          50 hmoveto
          158 hlineto
          74 372 rlineto
          92 hlineto
          -44 -230 rlineto
          -84 -18 32 -70 108 hhcurveto
          32 26 6 8 18 hvcurveto
          -4 114 rlineto
          -2 -6 -8 -2 -8 hhcurveto
          -16 -2 14 30 6 hvcurveto
          44 216 rlineto
          62 hlineto
          26 126 rlineto
          -482 hlineto
          -74 -6 -24 -120 rlineto
          82 hlineto
          endchar
        </CharString>
        <CharString name="plus">
          -59 274 112 hstem
          212 116 vstem
          212 92 rmoveto
          116 182 168 112 -166 182 -116 -182 -166 -112 164 hlineto
          endchar
        </CharString>
        <CharString name="plusminus">
          -59 0 112 198 112 hstem
          212 116 vstem
          212 164 rmoveto
          116 146 168 112 -166 146 -116 -146 -166 -112 164 hlineto
          284 -310 rmoveto
          50 callgsubr
          endchar
        </CharString>
        <CharString name="product">
          115 494 140 hstem
          0 694 vstem
          -120 vmoveto
          -47 callsubr
          122 614 rlineto
          226 hlineto
          -122 -614 rlineto
          -47 callsubr
          148 754 rlineto
          -544 hlineto
          endchar
        </CharString>
        <CharString name="q">
          -21 -155 -21 164 93 callsubr
          hintmask 10101100
          280 -52 rmoveto
          -26 -124 rlineto
          -47 callsubr
          136 676 rlineto
          -128 hlineto
          hintmask 10110100
          -71 callsubr
          -138 -128 -150 -190 -118 52 -66 88 48 58 28 46 127 callgsubr
          hintmask 11010100
          -80 56 -28 callgsubr
          endchar
        </CharString>
        <CharString name="q.sups">
          -206 252 90 168 90 hstem
          52 114 vstem
          404 592 rmoveto
          -90 hlineto
          -16 -34 rlineto
          -4 hlineto
          24 -12 -24 18 -28 hhcurveto
          -92 -86 -100 -126 -78 36 -44 58 32 38 18 30 28 hvcurveto
          4 hlineto
          -29 -75 -20 -97 65 callsubr
          -117 214 rmoveto
          -16 -12 14 32 72 36 50 36 12 14 -8 -16 6 hvcurveto
          -18 -102 rlineto
          -34 -18 -22 -8 -18 hhcurveto
          endchar
        </CharString>
        <CharString name="question">
          -121 -12 196 -175 -21 566 128 hstemhm
          88 190 38 156 hintmask 01111000
          168 -12 rmoveto
          91 callsubr
          hvcurveto
          hintmask 10111000
          48 -32 36 -48 -66 -44 -58 -54 vhcurveto
          hintmask 01111000
          91 callgsubr
          vhcurveto
          -22 256 rmoveto
          136 -12 rlineto
          22 130 168 10 154 vvcurveto
          98 -78 58 -114 -60 -56 -24 -48 -50 vhcurveto
          80 -90 rlineto
          24 24 20 10 22 hhcurveto
          34 22 -20 -32 -84 -152 -18 -18 -156 hvcurveto
          endchar
        </CharString>
        <CharString name="questiondown">
          -121 -182 128 370 196 0 -20 hstemhm
          0 156 38 190 hintmask 10111000
          304 512 rmoveto
          -66 -44 -56 -56 hvcurveto
          hintmask 11011000
          -48 32 -36 48 66 44 58 54 vhcurveto
          hintmask 10111000
          50 -32 34 -48 vhcurveto
          22 -256 rmoveto
          -136 12 rlineto
          -22 -130 -168 -10 -154 vvcurveto
          -98 78 -58 114 60 56 24 48 50 vhcurveto
          -80 90 rlineto
          -24 -24 -20 -10 -22 hhcurveto
          -34 -22 20 32 84 152 18 18 156 hvcurveto
          endchar
        </CharString>
        <CharString name="quotedbl">
          -29 338 332 hstem
          118 438 vstem
          118 338 39 callgsubr
          220 -192 39 callgsubr
          endchar
        </CharString>
        <CharString name="quotedblbase">
          -129 24 162 hstem
          42 176 64 176 vstem
          30 -162 -66 callsubr
          264 -68 -66 callsubr
          endchar
        </CharString>
        <CharString name="quotedblleft">
          -29 324 162 hstem
          92 176 64 176 vstem
          112 callsubr
          -4 callsubr
          216 68 83 callsubr
          -4 callsubr
          endchar
        </CharString>
        <CharString name="quotedblright">
          -29 534 162 hstem
          142 176 64 176 vstem
          130 348 -66 callsubr
          264 -68 -66 callsubr
          endchar
        </CharString>
        <CharString name="quoteleft">
          5 callsubr
        </CharString>
        <CharString name="quoteright">
          -269 534 162 hstem
          142 176 vstem
          130 348 -66 callsubr
          endchar
        </CharString>
        <CharString name="quotesinglbase">
          -269 24 162 hstem
          42 176 vstem
          30 -162 -66 callsubr
          endchar
        </CharString>
        <CharString name="quotesingle">
          -269 338 332 hstem
          118 198 vstem
          118 338 39 callgsubr
          endchar
        </CharString>
        <CharString name="r">
          101 callsubr
          hstemhm
          8 434 hintmask 10001100
          -51 callsubr
          hintmask 11000100
          -16 callsubr
          hintmask 10010100
          52 138 rlineto
          hintmask 10001100
          -7 callsubr
          hintmask 10100100
          4 98 rlineto
          -130 hlineto
          endchar
        </CharString>
        <CharString name="r.sups">
          -315 503 96 -60 53 hstemhm
          38 290 hintmask 01100000
          38 260 rmoveto
          111 hlineto
          38 197 rlineto
          33 24 22 13 31 hhcurveto
          11 8 0 -5 9 hvcurveto
          hintmask 10100000
          36 94 rlineto
          4 -7 -11 3 -19 hhcurveto
          -37 -34 -26 -34 -25 hvcurveto
          -3 hlineto
          hintmask 01100000
          1 53 rlineto
          -90 hlineto
          endchar
        </CharString>
        <CharString name="racute">
          75 callsubr
          466 hintmask 10001110
          -51 callsubr
          hintmask 11000110
          -16 callsubr
          hintmask 10010110
          52 138 rlineto
          hintmask 10001110
          -7 callsubr
          hintmask 10100110
          4 98 rlineto
          -130 hlineto
          94 74 -58 callgsubr
        </CharString>
        <CharString name="radical">
          -3 -78 154 -154 898 hstemhm
          48 646 hintmask 01100000
          274 162 rmoveto
          -32 284 -194 -72 10 -74 80 30 rlineto
          hintmask 10100000
          62 -408 rlineto
          108 hlineto
          386 898 rlineto
          -104 hlineto
          -276 -658 -30 -86 rlineto
          -4 hlineto
          endchar
        </CharString>
        <CharString name="rcaron">
          75 callsubr
          468 hintmask 10001110
          -51 callsubr
          hintmask 11000110
          -16 callsubr
          hintmask 10010110
          52 138 rlineto
          hintmask 10001110
          -7 callsubr
          hintmask 10100110
          4 98 rlineto
          -130 hlineto
          370 226 -86 callsubr
        </CharString>
        <CharString name="registered">
          -121 308 52 114 42 50 44 54 52 hstem
          84 56 170 66 42 56 vstem
          180 416 rmoveto
          60 hlineto
          12 58 rlineto
          24 hlineto
          16 -58 rlineto
          60 hlineto
          -24 72 rlineto
          32 12 16 26 26 vvcurveto
          36 -28 22 -40 vhcurveto
          -88 hlineto
          40 -94 rmoveto
          10 50 rlineto
          16 hlineto
          18 6 -8 -12 -16 -12 -14 -24 hvcurveto
          -12 -208 rmoveto
          126 86 112 116 hvcurveto
          104 -2 -82 76 -94 hhcurveto
          -128 -84 -112 -116 -104 82 -76 96 hvcurveto
          30 356 rmoveto
          76 50 -58 -74 -92 -62 -80 -90 -76 -50 58 74 92 62 80 90 hvcurveto
          endchar
        </CharString>
        <CharString name="ring">
          -39 548 60 88 60 hstem
          238 76 72 76 vstem
          344 548 -57 callsubr
        </CharString>
        <CharString name="s">
          -147 -12 128 callsubr
          30 150 hintmask 11010000
          -22 callgsubr
          hintmask 11110000
          -70 callgsubr
          hintmask 11010000
          -30 callsubr
          endchar
        </CharString>
        <CharString name="s.sups">
          -289 252 78 192 78 hstemhm
          72 104 14 103 hintmask 11010000
          21 309 rmoveto
          -35 31 52 -22 45 hhcurveto
          89 55 45 66 50 -34 26 -31 17 hvcurveto
          hintmask 11110000
          -25 14 -27 10 17 vvcurveto
          13 9 12 20 27 24 -18 -18 21 vhcurveto
          50 65 rlineto
          25 -31 -41 24 -50 hhcurveto
          -76 -57 -49 -64 -44 31 -28 32 -21 hvcurveto
          hintmask 11010000
          35 -23 20 -3 -14 vvcurveto
          -15 -9 -9 -25 -24 -24 14 24 -26 vhcurveto
          endchar
        </CharString>
        <CharString name="sacute">
          -67 callgsubr
          112 412 -58 callgsubr
        </CharString>
        <CharString name="scaron">
          -67 callgsubr
          388 564 -86 callsubr
        </CharString>
        <CharString name="scircumflex">
          -67 callgsubr
          46 412 -91 callsubr
          endchar
        </CharString>
        <CharString name="section">
          -63 -88 118 -9 -21 572 120 hstemhm
          46 136 -50 144 -24 144 -44 138 hintmask 01110010
          182 330 rmoveto
          28 15 19 20 12 vhcurveto
          62 -42 73 -28 -45 vvcurveto
          -30 -13 -19 -21 -13 vhcurveto
          -61 44 -75 27 47 vvcurveto
          314 280 rmoveto
          52 -50 -64 30 -64 hhcurveto
          hintmask 01101010
          -112 -74 -74 -98 -23 6 -20 10 -18 hvcurveto
          hintmask 10110100
          -59 -29 -43 -52 -66 -154 206 -30 -60 vvcurveto
          -24 -16 -14 -32 -48 -50 36 32 -32 vhcurveto
          hintmask 01110010
          -78 -98 rlineto
          hintmask 10110100
          -56 56 78 -32 66 hhcurveto
          120 80 68 106 18 -3 16 -6 14 hvcurveto
          hintmask 01101010
          63 34 40 51 73 148 -214 40 56 vvcurveto
          24 18 12 24 38 34 -26 -24 26 vhcurveto
          endchar
        </CharString>
        <CharString name="semicolon">
          -269 -196 700 -502 182 hstemhm
          26 198 -146 190 hintmask 10010000
          -10 -196 rmoveto
          hintmask 10100000
          36 callsubr
          hintmask 10010000
          214 614 rmoveto
          -66 -44 -58 -54 91 callgsubr
          91 callsubr
          48 -32 36 -48 hvcurveto
          endchar
        </CharString>
        <CharString name="seven">
          -59 21 -21 500 134 hstem
          92 462 vstem
          92 hmoveto
          164 hlineto
          38 174 52 188 188 172 92 callsubr
          -124 -74 -162 -60 -214 rrcurveto
          endchar
        </CharString>
        <CharString name="seven.dnom">
          -211 292 98 hstem
          56 308 vstem
          56 hmoveto
          -40 callgsubr
          endchar
        </CharString>
        <CharString name="seven.numr">
          -211 562 98 hstem
          106 308 vstem
          106 270 rmoveto
          -40 callgsubr
          endchar
        </CharString>
        <CharString name="seven.onum">
          -89 446 134 hstem
          64 462 vstem
          64 -80 rmoveto
          164 hlineto
          38 184 52 202 188 174 20 100 rcurveline
          -424 hlineto
          -26 -134 rlineto
          246 hlineto
          -124 -126 -74 -174 -60 -226 rrcurveto
          endchar
        </CharString>
        <CharString name="seven.pnum">
          -89 21 -21 500 134 hstem
          80 452 vstem
          80 hmoveto
          164 hlineto
          38 174 52 188 178 172 20 100 rcurveline
          -422 hlineto
          -26 -134 rlineto
          244 hlineto
          -116 -124 -72 -162 -60 -214 rrcurveto
          endchar
        </CharString>
        <CharString name="seven.subs">
          -211 122 98 hstem
          16 308 vstem
          16 -170 rmoveto
          -40 callgsubr
          endchar
        </CharString>
        <CharString name="seven.sups">
          -211 732 98 hstem
          136 308 vstem
          136 440 rmoveto
          -40 callgsubr
          endchar
        </CharString>
        <CharString name="seven.tnum">
          -59 446 134 hstem
          74 466 vstem
          74 -80 rmoveto
          164 hlineto
          36 182 58 200 188 178 92 callsubr
          -128 -78 -174 -60 -224 rrcurveto
          endchar
        </CharString>
        <CharString name="seveneighths">
          237 -12 78 256 80 160 98 hstemhm
          454 28 callgsubr
          hintmask 10101100
          86 270 rmoveto
          -40 callgsubr
          108 -282 -44 callsubr
          hintmask 10110100
          458 116 -54 callsubr
          hintmask 11101010
          -57 callgsubr
          hintmask 10110100
          -50 callgsubr
          hintmask 11101010
          -55 callgsubr
          hintmask 10110100
          -44 -22 -44 -40 -52 vvcurveto
          endchar
        </CharString>
        <CharString name="six">
          -90 callgsubr
        </CharString>
        <CharString name="six.dnom">
          -215 -12 114 callsubr
          14 108 82 104 vstem
          162 80 -75 callgsubr
        </CharString>
        <CharString name="six.numr">
          -215 258 114 callsubr
          64 108 82 104 vstem
          212 350 -75 callgsubr
        </CharString>
        <CharString name="six.onum">
          -90 callgsubr
        </CharString>
        <CharString name="six.pnum">
          -90 callgsubr
        </CharString>
        <CharString name="six.subs">
          -215 -182 114 callsubr
          -26 108 82 104 vstem
          122 -90 -75 callgsubr
        </CharString>
        <CharString name="six.sups">
          -215 428 114 callsubr
          94 108 82 104 vstem
          242 520 -75 callgsubr
        </CharString>
        <CharString name="six.tnum">
          -90 callgsubr
        </CharString>
        <CharString name="slash">
          -255 -160 870 hstem
          -68 452 vstem
          -68 -160 rmoveto
          102 hlineto
          350 870 rlineto
          -104 hlineto
          endchar
        </CharString>
        <CharString name="slash.frac">
          -481 -12 684 hstem
          -214 560 vstem
          -124 -12 -44 callsubr
          endchar
        </CharString>
        <CharString name="space">
          -379 endchar
        </CharString>
        <CharString name="space.frac">
          -439 endchar
        </CharString>
        <CharString name="sterling">
          -59 0 134 128 114 152 128 hstemhm
          142 148 -140 144 hintmask 11101000
          242 138 rmoveto
          31 40 15 37 6 47 rrcurveto
          116 hlineto
          22 114 rlineto
          hintmask 11110000
          -141 hlineto
          -1 6 0 6 6 vvcurveto
          96 42 38 48 30 18 -14 -28 22 vhcurveto
          102 84 rlineto
          54 -40 -52 32 -72 hhcurveto
          -136 -110 -96 -142 -13 1 -14 2 -15 hvcurveto
          hintmask 11101000
          -69 -6 -20 -108 rlineto
          94 hlineto
          -9 -75 -51 -58 -74 -31 -20 -98 rcurveline
          446 hlineto
          24 -45 callsubr
          -226 hlineto
          endchar
        </CharString>
        <CharString name="summation">
          -57 -120 134 486 134 hstem
          -48 614 vstem
          -30 -28 rmoveto
          -18 -92 rlineto
          484 -20 callgsubr
          -282 4 hlineto
          198 240 -98 238 rlineto
          4 258 vlineto
          26 -45 callsubr
          -452 hlineto
          -18 -94 126 -270 rlineto
          endchar
        </CharString>
        <CharString name="t">
          -195 -12 42 callgsubr
          hintmask 01110000
          -23 callgsubr
          hintmask 10110000
          -79 callsubr
          endchar
        </CharString>
        <CharString name="t.sups">
          -320 252 86 168 86 hstem
          73 114 vstem
          78 390 rmoveto
          -3 -15 -2 -14 -15 vvcurveto
          -55 30 -39 73 30 30 6 6 20 vhcurveto
          -17 79 rlineto
          -3 -9 -6 -2 -10 hhcurveto
          -17 -10 8 21 6 0 6 1 7 hvcurveto
          24 120 rlineto
          75 hlineto
          16 86 rlineto
          -74 hlineto
          17 83 rlineto
          -92 hlineto
          -28 -83 -50 -4 -16 -82 rlineto
          43 hlineto
          endchar
        </CharString>
        <CharString name="tcaron">
          119 callsubr
          48 80 hstemhm
          60 164 hintmask 01111000
          -23 callgsubr
          hintmask 10111000
          -79 callsubr
          299 172 15 callgsubr
        </CharString>
        <CharString name="thorn">
          132 callsubr
          68 callsubr
          hintmask 11011100
          264 -12 rmoveto
          7 callgsubr
          -176 -872 rlineto
          160 74 callgsubr
          12 94 rlineto
          2 hlineto
          -34 20 36 -20 38 hhcurveto
          hintmask 11101100
          54 394 44 callsubr
        </CharString>
        <CharString name="three">
          -59 113 callgsubr
          300 160 -128 164 hintmask 11110000
          -18 -14 callsubr
        </CharString>
        <CharString name="three.dnom">
          -215 -12 125 callgsubr
          hstemhm
          192 88 callgsubr
          hintmask 11110000
          -4 68 -75 callsubr
        </CharString>
        <CharString name="three.numr">
          -215 258 125 callgsubr
          hstemhm
          242 88 callgsubr
          hintmask 11110000
          46 338 -75 callsubr
        </CharString>
        <CharString name="three.onum">
          -35 callgsubr
        </CharString>
        <CharString name="three.pnum">
          -79 113 callgsubr
          296 160 -128 164 hintmask 11110000
          -22 -14 callsubr
        </CharString>
        <CharString name="three.subs">
          -215 -182 125 callgsubr
          hstemhm
          152 88 callgsubr
          hintmask 11110000
          -44 -102 -75 callsubr
        </CharString>
        <CharString name="three.sups">
          -215 428 125 callgsubr
          hstemhm
          272 88 callgsubr
          hintmask 11110000
          76 508 -75 callsubr
        </CharString>
        <CharString name="three.tnum">
          -35 callgsubr
        </CharString>
        <CharString name="threeeighths">
          247 -12 78 192 92 -28 80 32 69 79 90 -36 -20 hstemhm
          222 88 callgsubr
          108 28 callgsubr
          hintmask 1101011001100000
          26 338 rmoveto
          -30 callgsubr
          hintmask 1101100101100000
          54 22 22 34 50 vvcurveto
          58 -52 40 -73 vhcurveto
          hintmask 1101011001100000
          -49 -38 -8 -28 -48 hvcurveto
          hintmask 1101100101100000
          48 -76 rlineto
          18 26 12 4 22 hhcurveto
          22 14 -12 -17 -25 -13 -25 -69 hvcurveto
          hintmask 1101011010100000
          -34 callsubr
          134 -404 -44 callsubr
          428 116 -54 callsubr
          hintmask 1011011001010000
          -57 callgsubr
          hintmask 1101011010100000
          -50 callgsubr
          hintmask 1011011001010000
          -55 callgsubr
          hintmask 1101011010100000
          -44 -22 -44 -40 -52 vvcurveto
          endchar
        </CharString>
        <CharString name="threequarters">
          219 0 158 -149 -21 94 76 100 92 -30 70 44 69 79 90 -36 -20 hstemhm
          232 88 callgsubr
          hintmask 1001011001000000
          154 560 rmoveto
          18 26 12 4 22 hhcurveto
          22 14 -12 -17 -25 -13 -25 -69 hvcurveto
          hintmask 1001010110000000
          -34 callsubr
          -74 -54 rlineto
          -30 callgsubr
          hintmask 1001011001000000
          54 22 22 34 50 vvcurveto
          58 -52 40 -73 vhcurveto
          hintmask 0101010110000000
          -49 -38 -8 -28 -48 hvcurveto
          508 36 rmoveto
          -470 -684 rlineto
          90 hlineto
          470 684 rlineto
          hintmask 1000110110000000
          -168 -514 rmoveto
          58 76 58 86 rlineto
          4 hlineto
          -28 -124 -8 -38 rlineto
          156 hmoveto
          -57 hlineto
          45 232 rlineto
          -146 hlineto
          hintmask 0011010110000000
          -188 -248 -12 -60 rlineto
          187 hlineto
          hintmask 1001010110000000
          -17 -82 rlineto
          100 hlineto
          hintmask 0011010110000000
          16 82 rlineto
          56 hlineto
          endchar
        </CharString>
        <CharString name="tilde">
          -39 574 117 callgsubr
          172 364 hintmask 01100000
          254 576 17 callsubr
          hintmask 10100000
          -66 callgsubr
          hintmask 01100000
          -41 callsubr
          endchar
        </CharString>
        <CharString name="trademark">
          89 406 116 54 100 -92 92 hstemhm
          70 660 hintmask 10110000
          328 360 rmoveto
          96 hlineto
          18 88 4 128 rlineto
          4 hlineto
          32 -170 rlineto
          48 hlineto
          hintmask 11010000
          44 callgsubr
          hintmask 10110000
          -6 68 -20 86 rlineto
          -114 hlineto
          -280 -316 rmoveto
          102 hlineto
          44 224 rlineto
          78 hlineto
          18 92 rlineto
          -262 hlineto
          -18 -92 rlineto
          82 hlineto
          endchar
        </CharString>
        <CharString name="triagdn">
          -5 16 530 hstem
          18 538 vstem
          288 16 rmoveto
          268 528 rlineto
          2 -538 -2 vlineto
          268 -528 rlineto
          endchar
        </CharString>
        <CharString name="triagup">
          -5 16 532 hstem
          18 538 vstem
          286 548 rmoveto
          -268 -530 rlineto
          -2 538 2 vlineto
          -268 530 rlineto
          endchar
        </CharString>
        <CharString name="two">
          -59 0 134 386 126 hstem
          334 156 vstem
          -14 hmoveto
          438 -70 callsubr
          -192 hlineto
          132 122 100 90 124 vvcurveto
          106 -78 70 -124 -64 -64 -28 -52 46 callsubr
          42 24 -26 -40 -106 -142 -106 -188 -152 hvcurveto
          endchar
        </CharString>
        <CharString name="two.dnom">
          -211 0 98 204 100 hstem
          204 116 vstem
          -8 hmoveto
          -74 callsubr
          endchar
        </CharString>
        <CharString name="two.numr">
          -211 270 98 204 100 hstem
          254 116 vstem
          42 270 rmoveto
          -74 callsubr
          endchar
        </CharString>
        <CharString name="two.onum">
          -93 0 134 332 126 hstem
          300 156 vstem
          -14 hmoveto
          412 -70 callsubr
          -174 hlineto
          116 102 90 78 102 vvcurveto
          106 -74 70 -112 -64 -64 -29 -51 46 callsubr
          30 20 -26 -40 -88 -128 -90 -168 -132 hvcurveto
          endchar
        </CharString>
        <CharString name="two.pnum">
          -79 0 134 386 126 hstem
          324 156 vstem
          -14 hmoveto
          428 -70 callsubr
          -182 hlineto
          126 122 96 90 124 vvcurveto
          106 -76 70 -116 -64 -64 -28 -52 46 callsubr
          36 20 -26 -40 -106 -138 -106 -182 -152 hvcurveto
          endchar
        </CharString>
        <CharString name="two.subs">
          -211 -170 98 204 100 hstem
          164 116 vstem
          -48 -170 rmoveto
          -74 callsubr
          endchar
        </CharString>
        <CharString name="two.sups">
          -211 440 98 204 100 hstem
          284 116 vstem
          72 440 rmoveto
          -74 callsubr
          endchar
        </CharString>
        <CharString name="two.tnum">
          -59 0 134 332 126 hstem
          316 156 vstem
          -14 hmoveto
          438 -70 callsubr
          -192 hlineto
          122 102 92 78 102 vvcurveto
          106 -78 70 -124 -64 -64 -29 -51 46 callsubr
          42 24 -26 -40 -88 -132 -90 -180 -132 hvcurveto
          endchar
        </CharString>
        <CharString name="twothirds">
          255 -12 92 84 69 37 98 -56 90 170 100 hstemhm
          254 116 292 88 callgsubr
          hintmask 10101110
          42 270 rmoveto
          -74 callsubr
          200 -344 -44 callsubr
          302 80 rmoveto
          -30 callgsubr
          hintmask 11011101
          54 22 22 34 50 vvcurveto
          58 -52 40 -73 -49 -38 -8 -28 -48 vhcurveto
          48 -76 rlineto
          18 26 12 4 22 hhcurveto
          22 14 -12 -17 -25 -13 -25 -69 hvcurveto
          hintmask 11101110
          -9 callsubr
        </CharString>
        <CharString name="u">
          -22 callsubr
          70 callsubr
          510 hintmask 00110100
          -26 callgsubr
          hintmask 10010100
          -62 -320 rlineto
          hintmask 10011000
          -104 callsubr
          hintmask 01011000
          -76 callsubr
          hintmask 00110100
          -64 130 vlineto
          endchar
        </CharString>
        <CharString name="u.sups">
          -209 260 86 hstemhm
          51 117 -117 349 hintmask 10100000
          400 592 rmoveto
          -112 hlineto
          hintmask 11000000
          -41 -210 rlineto
          -24 -22 -14 -12 -18 hhcurveto
          -16 -9 9 18 7 1 9 3 12 hvcurveto
          38 191 89 callgsubr
          -41 -205 rlineto
          -2 -14 -4 -17 -15 vvcurveto
          -57 26 -32 55 43 35 24 28 30 vhcurveto
          4 -44 90 hlineto
          endchar
        </CharString>
        <CharString name="uacute">
          -27 34 callsubr
          -164 510 -93 callgsubr
          -202 574 -58 callgsubr
        </CharString>
        <CharString name="ubreve">
          -22 callsubr
          94 84 60 callsubr
          22 88 hintmask 00111010
          -26 callgsubr
          hintmask 10011010
          -62 -320 rlineto
          hintmask 10011110
          -104 callsubr
          hintmask 01011110
          -76 callsubr
          hintmask 00111010
          -64 130 vlineto
          -114 574 -96 callsubr
          endchar
        </CharString>
        <CharString name="ucircumflex">
          -27 34 callsubr
          -164 510 -93 callgsubr
          -268 574 -91 callsubr
          endchar
        </CharString>
        <CharString name="udieresis">
          -22 callsubr
          86 148 60 callsubr
          -28 100 callsubr
          hintmask 00111011
          -26 callgsubr
          hintmask 10011011
          -62 -320 rlineto
          hintmask 10011101
          -104 callsubr
          hintmask 01011101
          -76 callsubr
          hintmask 00111011
          -64 130 vlineto
          -210 566 -95 callgsubr
        </CharString>
        <CharString name="ugrave">
          -27 34 callsubr
          -164 510 -93 callgsubr
          -144 574 -32 callgsubr
        </CharString>
        <CharString name="uhorn">
          69 callgsubr
          60 callsubr
          332 124 hintmask 00111100
          520 608 25 callgsubr
          hintmask 10011100
          -62 -320 rlineto
          -85 callsubr
          hintmask 00111100
          4 callgsubr
        </CharString>
        <CharString name="uhungarumlaut">
          -27 34 callsubr
          -164 564 -93 callgsubr
          -246 574 -7 callgsubr
        </CharString>
        <CharString name="umacron">
          -22 callsubr
          110 100 70 callsubr
          510 -93 callgsubr
          -248 590 -82 callsubr
          endchar
        </CharString>
        <CharString name="underscore">
          -99 -144 88 hstem
          -52 474 vstem
          -34 -56 rmoveto
          -18 -88 rlineto
          456 hlineto
          18 88 rlineto
          endchar
        </CharString>
        <CharString name="uni00470303">
          7 callsubr
          36 105 callgsubr
          56 164 hintmask 11101100
          -101 callgsubr
          284 436 rmoveto
          30 callsubr
          hintmask 11110100
          77 callsubr
          -82 hlineto
          -30 -13 -13 -12 -14 hhcurveto
          hintmask 11101100
          -31 callsubr
          endchar
        </CharString>
        <CharString name="uni00670303">
          94 callgsubr
          98 -56 98 -6 callsubr
          hintmask 11010110
          414 500 rmoveto
          hintmask 11100110
          -101 callsubr
          hintmask 11010110
          -27 callsubr
          hintmask 11100110
          -28 callsubr
          hintmask 11010110
          -46 -26 -34 -10 -28 hhcurveto
          6 426 17 callsubr
          hintmask 11011010
          -66 callgsubr
          hintmask 11010110
          -41 callsubr
          endchar
        </CharString>
        <CharString name="uni00670303.a">
          -34 callgsubr
          62 117 callgsubr
          -30 136 -64 130 -112 146 76 158 -120 136 hintmask 1110101001010000
          15 callsubr
          hintmask 1111001010010000
          -15 callgsubr
          hintmask 1111001100100000
          -59 callsubr
          hintmask 1111001010010000
          -83 callgsubr
          hintmask 1110101001010000
          8 -22 -22 4 -28 hhcurveto
          -118 -100 -82 -114 hvcurveto
          hintmask 1111001100100000
          -69 callgsubr
          hintmask 1110101001010000
          -53 callgsubr
          -60 172 17 callsubr
          hintmask 1111010001010000
          -66 callgsubr
          hintmask 1111001001010000
          -41 callsubr
          endchar
        </CharString>
        <CharString name="uni00A0">
          -379 endchar
        </CharString>
        <CharString name="uni00AD">
          -251 198 112 hstem
          34 264 vstem
          34 94 callsubr
        </CharString>
        <CharString name="uni00B5">
          -25 0 124 hstem
          -28 572 vstem
          266 -11 callgsubr
          -134 -676 rlineto
          159 hlineto
          27 138 6 52 rlineto
          -14 10 20 -4 22 hhcurveto
          36 38 30 38 24 hvcurveto
          4 -64 130 hlineto
          96 500 rlineto
          -158 hlineto
          -62 -321 rlineto
          -37 -32 -24 -18 -26 hhcurveto
          -26 -16 14 28 12 4 14 4 18 hvcurveto
          endchar
        </CharString>
        <CharString name="uni0122">
          41 -224 62 150 136 124 130 146 138 101 callgsubr
          56 112 vstem
          -101 callgsubr
          186 -354 -95 callsubr
          endchar
        </CharString>
        <CharString name="uni0123">
          -6 callgsubr
          190 62 -6 callsubr
          55 112 hintmask 11011110
          414 500 rmoveto
          hintmask 11101110
          -101 callsubr
          hintmask 11011110
          -27 callsubr
          hintmask 11101110
          -28 callsubr
          hintmask 11011110
          -46 -26 -34 -10 -28 hhcurveto
          157 448 8 callsubr
        </CharString>
        <CharString name="uni0123.a">
          -34 callgsubr
          158 62 hstemhm
          -31 136 -64 130 -112 146 13 112 -49 158 -120 136 hintmask 1110110010010000
          59 -63 callgsubr
          91 194 8 callsubr
        </CharString>
        <CharString name="uni012C">
          33 callsubr
          70 122 hstem
          122 84 -27 callgsubr
          76 50 -54 callgsubr
        </CharString>
        <CharString name="uni012D">
          50 callsubr
          94 84 hstem
          84 88 vstem
          -38 callsubr
          88 74 -96 callsubr
          endchar
        </CharString>
        <CharString name="uni0136">
          43 99 callgsubr
          650 -20 hstem
          252 112 -16 callgsubr
          62 -740 -95 callsubr
          endchar
        </CharString>
        <CharString name="uni0137">
          -35 99 callgsubr
          500 -20 216 -20 hstem
          200 112 -35 callsubr
          76 376 -86 callgsubr
          18 -786 -95 callsubr
          endchar
        </CharString>
        <CharString name="uni013B">
          -65 -224 62 162 87 callsubr
          hstem
          194 112 vstem
          -41 callgsubr
          4 -740 -95 callsubr
          endchar
        </CharString>
        <CharString name="uni013C">
          -293 -224 62 171 86 callsubr
          -189 112 hintmask 11011000
          27 callsubr
          -80 callgsubr
          hintmask 10110100
          -138 -786 -95 callsubr
          endchar
        </CharString>
        <CharString name="uni013C.a">
          -303 99 callgsubr
          696 -20 hstem
          44 112 vstem
          -10 callsubr
          -138 -786 -95 callsubr
          endchar
        </CharString>
        <CharString name="uni0145">
          73 -232 62 191 34 callgsubr
          hstem
          262 112 vstem
          -96 callgsubr
          72 -748 -95 callsubr
          endchar
        </CharString>
        <CharString name="uni0146">
          -17 -224 62 183 26 callgsubr
          hstemhm
          196 112 52 164 hintmask 11001110
          -51 callsubr
          hintmask 11100110
          110 callgsubr
          -88 callgsubr
          5 24 3 26 22 vvcurveto
          hintmask 11001110
          -5 callsubr
          hintmask 11010110
          108 callsubr
          56 -590 -95 callsubr
          endchar
        </CharString>
        <CharString name="uni014E">
          0 callsubr
          38 122 101 callgsubr
          88 84 88 164 vstem
          -105 callgsubr
          34 176 -54 callgsubr
        </CharString>
        <CharString name="uni014F">
          -39 -11 callsubr
          84 hstem
          26 162 32 88 40 162 vstem
          -105 callsubr
          40 190 -96 callsubr
          endchar
        </CharString>
        <CharString name="uni0156">
          33 -232 62 191 86 callgsubr
          246 112 84 158 vstem
          212 -98 -95 callsubr
          38 568 -92 callgsubr
        </CharString>
        <CharString name="uni0157">
          -179 -224 62 183 12 callgsubr
          hstemhm
          46 112 -36 callsubr
          -94 -590 -95 callsubr
          endchar
        </CharString>
        <CharString name="uni015E">
          -41 -222 62 172 -21 533 138 hstemhm
          102 164 -66 118 10 166 hintmask 11110100
          346 396 rmoveto
          -52 33 -28 12 27 vvcurveto
          31 23 25 46 42 33 -24 -33 33 vhcurveto
          100 94 rlineto
          63 -53 -73 38 -76 hhcurveto
          -132 -107 -93 -117 -81 36 -47 60 -38 hvcurveto
          56 -35 rlineto
          45 -28 29 -13 -29 vvcurveto
          -36 -30 -21 -46 -50 -52 32 47 -34 vhcurveto
          -114 -90 rlineto
          hintmask 11101100
          57 -77 71 -36 71 -9 -45 -67 rcurveline
          -69 callsubr
          21 34 rlineto
          hintmask 11110100
          124 20 75 88 104 vvcurveto
          76 -25 41 -63 38 vhcurveto
          endchar
        </CharString>
        <CharString name="uni015F">
          -147 -222 62 176 -21 399 118 134 callgsubr
          -90 118 2 150 hintmask 11110000
          430 432 rmoveto
          44 -42 -56 36 -72 hhcurveto
          -112 -90 -72 -96 -66 47 -46 49 -28 hvcurveto
          hintmask 11110100
          -30 callsubr
          -92 -76 rlineto
          hintmask 11101000
          32 -48 52 -30 48 -13 -48 -71 rcurveline
          -69 callsubr
          20 32 rlineto
          hintmask 11110100
          104 13 72 64 89 vvcurveto
          74 -52 40 -48 26 vhcurveto
          hintmask 11110000
          -38 22 -42 12 28 vvcurveto
          20 20 16 32 32 28 -20 -24 24 vhcurveto
          endchar
        </CharString>
        <CharString name="uni0162">
          -39 -222 62 181 -21 516 134 hstem
          174 118 vstem
          106 650 rmoveto
          -26 -134 116 callsubr
          -102 -516 rlineto
          39 hlineto
          -51 -76 rlineto
          -69 callsubr
          26 42 rlineto
          28 hlineto
          102 516 rlineto
          164 -70 callsubr
          endchar
        </CharString>
        <CharString name="uni0163">
          -195 -222 62 169 -21 32 -21 377 124 hstemhm
          60 164 -90 118 hintmask 10110100
          264 376 rmoveto
          112 30 callgsubr
          -108 hlineto
          24 128 rlineto
          -134 hlineto
          hintmask 10111000
          -44 -128 -72 -6 71 callgsubr
          -38 -182 rlineto
          -4 -22 -4 -22 -22 vvcurveto
          -61 24 -48 57 -20 vhcurveto
          hintmask 11010100
          -51 -75 rlineto
          -69 callsubr
          18 30 48 2 37 11 25 9 rlinecurve
          hintmask 10111000
          -28 112 rlineto
          -6 -12 -12 -4 -12 hhcurveto
          -32 -16 14 30 10 0 10 2 12 hvcurveto
          endchar
        </CharString>
        <CharString name="uni0180">
          -23 -12 130 -97 -21 362 130 60 73 -73 76 -76 144 hstemhm
          360 166 hintmask 01100110
          230 306 rmoveto
          44 24 34 12 26 hhcurveto
          28 18 -19 -45 hvcurveto
          hintmask 10100110
          -106 -50 -74 -58 -20 -22 12 26 -10 vhcurveto
          48 282 rmoveto
          26 92 5 22 rlineto
          155 hlineto
          hintmask 01101010
          16 76 67 callgsubr
          hintmask 01100110
          14 68 -86 callgsubr
          hintmask 01110010
          -14 -68 -68 -6 rlineto
          hintmask 01100110
          -14 -70 rlineto
          67 hlineto
          -111 -552 rlineto
          132 hlineto
          hintmask 10100110
          22 50 rlineto
          2 hlineto
          -38 18 40 -24 42 hhcurveto
          138 124 146 184 112 -52 62 -88 -46 -48 -20 -34 -42 hvcurveto
          endchar
        </CharString>
        <CharString name="uni018F">
          101 -12 136 144 116 152 136 hstem
          496 160 vstem
          478 268 rmoveto
          -89 -30 -63 -55 -65 hhcurveto
          -64 -54 52 92 14 hvcurveto
          38 214 rmoveto
          28 36 38 26 60 hhcurveto
          78 30 -54 -96 hvcurveto
          -1 0 0 -1 vvcurveto
          -406 hlineto
          -16 -50 -8 -34 -52 vvcurveto
          -160 92 -100 150 188 160 168 246 168 -88 102 -160 -96 -70 -34 -48 -54 vhcurveto
          endchar
        </CharString>
</ttFont>
